<?xml version="1.0" encoding="UTF-8" standalone="no"?>
<svg
   xmlns:dc="http://purl.org/dc/elements/1.1/"
   xmlns:cc="http://creativecommons.org/ns#"
   xmlns:rdf="http://www.w3.org/1999/02/22-rdf-syntax-ns#"
   xmlns:svg="http://www.w3.org/2000/svg"
   xmlns="http://www.w3.org/2000/svg"
   version="1.1"
   id="svg4261"
   height="373"
   width="390">
  <metadata
     id="metadata4273">
    <rdf:RDF>
      <cc:Work
         rdf:about="">
        <dc:format>image/svg+xml</dc:format>
        <dc:type
           rdf:resource="http://purl.org/dc/dcmitype/StillImage" />
        <dc:title></dc:title>
      </cc:Work>
    </rdf:RDF>
  </metadata>
  <defs
     id="defs4271" />
  <rect
     y="-139"
     x="0"
     height="512"
     width="512"
     id="rect4275"
     style="fill:#e6e6e6;fill-opacity:1;fill-rule:nonzero;stroke:none;stroke-width:1.79999995;stroke-linecap:round;stroke-linejoin:round;stroke-miterlimit:4;stroke-dasharray:none;stroke-opacity:1" />
  <g
     transform="matrix(0.95443712,0,0,0.95443703,70,-61.172849)"
     style="fill:#ffffff"
     id="g4263">
    <title
       id="title4265">Layer 1</title>
    <g
       style="fill:#ffffff"
       id="Layer_x0020_1">
      <path
         style="fill:#ffffff;stroke-width:0"
         class="fil0"
         d="m 67.164558,130.0056 31.776917,0 4.885235,171.01433 -40.937832,0.001 4.275681,-171.01609 0,6e-4 z m -29.948761,177.162 315.327383,0 0,22.00351 18.89334,0 -10e-4,22.00354 18.323,0 0,22.00122 L 0,373.17413 l 0,-21.99948 18.323006,0 0,-22.00354 18.892212,0 0,-22.00351 5.8e-4,0 z M 368.98843,82.25631 194.87601,0 20.760733,82.25631 l 0.0011,13.447571 348.225977,0.0011 0,-13.448715 5.8e-4,0 z m -314.660695,19.6004 281.104665,0 0,21.9995 -281.104665,0 0,-21.9995 z m 235.877315,28.14889 31.77688,0 4.88642,171.01607 -40.93726,-0.002 4.27396,-171.01433 z m -74.34682,0 31.7769,0.001 4.88638,171.01319 -40.93899,10e-4 4.27571,-171.01608 0,5.9e-4 z m -74.34685,0 31.77576,-0.002 4.88875,171.01608 -40.94017,0 4.27566,-171.01433 z"
         id="path10" />
    </g>
  </g>
</svg>
