<?xml version="1.0" encoding="utf-8"?>
<!-- Generator: Adobe Illustrator 15.0.0, SVG Export Plug-In . SVG Version: 6.00 Build 0)  -->
<!DOCTYPE svg PUBLIC "-//W3C//DTD SVG 1.1//EN" "http://www.w3.org/Graphics/SVG/1.1/DTD/svg11.dtd">
<svg version="1.1" id="Layer_1" xmlns="http://www.w3.org/2000/svg" xmlns:xlink="http://www.w3.org/1999/xlink" x="0px" y="0px"
	 width="43.583px" height="10.575px" viewBox="0 0 43.583 10.575" enable-background="new 0 0 43.583 10.575" xml:space="preserve">
<g>
	<path d="M2.735,3.418c0.101-0.35,0.268-0.784,0.501-1.304c0.239-0.541,0.488-1.021,0.748-1.439
		c0.138-0.217,0.259-0.382,0.366-0.493C4.46,0.061,4.556,0,4.635,0c0.106,0,0.159,0.093,0.159,0.278
		c0,0.048-0.005,0.125-0.016,0.231L4.747,0.715L4.58,5.899C4.569,6.111,4.606,6.283,4.691,6.416
		c0.084,0.133,0.196,0.199,0.334,0.199c0.069,0,0.125-0.013,0.167-0.04c0.042-0.026,0.087-0.066,0.135-0.119
		c0.053-0.059,0.094-0.1,0.124-0.124c0.029-0.023,0.067-0.036,0.115-0.036c0.08,0,0.135,0.008,0.167,0.024s0.05,0.04,0.056,0.071
		c0.005,0.032,0.008,0.093,0.008,0.183c0,0.063-0.05,0.132-0.151,0.207c-0.111,0.08-0.202,0.12-0.271,0.12H5.136
		c-0.26,0-0.485-0.096-0.676-0.287C4.375,6.53,4.305,6.432,4.25,6.32S4.155,6.095,4.134,5.979C4.086,5.761,4.063,5.464,4.063,5.088
		L4.055,4.85l0.008-0.247V4.142C3.904,4.046,3.724,3.967,3.522,3.903C3.321,3.84,3.125,3.808,2.934,3.808
		c-0.021,0-0.053,0.063-0.095,0.191c-0.08,0.249-0.13,0.416-0.151,0.5l-0.12,0.39C2.473,5.234,2.359,5.6,2.226,5.986
		C2.02,6.596,1.813,7.057,1.606,7.37c-0.09,0.132-0.19,0.233-0.302,0.302S1.079,7.775,0.962,7.775c-0.122,0-0.242-0.033-0.361-0.1
		c-0.12-0.066-0.222-0.163-0.306-0.29C0.098,7.115,0,6.781,0,6.384c0-0.191,0.026-0.4,0.08-0.628C0.154,5.459,0.271,5.17,0.43,4.889
		c0.159-0.281,0.355-0.53,0.588-0.747c0.244-0.228,0.512-0.406,0.803-0.533C2.112,3.482,2.417,3.418,2.735,3.418z M0.588,6.924
		c0.048,0.186,0.109,0.31,0.183,0.374C0.813,7.34,0.867,7.362,0.93,7.362c0.096,0,0.196-0.059,0.302-0.175
		c0.085-0.096,0.156-0.196,0.215-0.302c0.207-0.366,0.445-0.936,0.715-1.709C2.348,4.651,2.494,4.185,2.6,3.776
		c-0.52,0-0.954,0.201-1.304,0.604C1.137,4.555,1.002,4.757,0.891,4.985C0.779,5.212,0.694,5.448,0.636,5.692
		C0.567,5.994,0.533,6.257,0.533,6.479C0.533,6.659,0.551,6.808,0.588,6.924z M4.086,3.768l0.183-2.75
		C4.248,1.033,4.208,1.086,4.15,1.176C4.034,1.351,3.875,1.627,3.673,2.003C3.461,2.396,3.292,2.743,3.165,3.045
		C3.101,3.193,3.05,3.336,3.013,3.474c0.223,0.021,0.424,0.053,0.604,0.095C3.776,3.606,3.933,3.673,4.086,3.768z"/>
	<path d="M8.833,4.309l0.135,0.413L8.864,4.929c-0.132,0.27-0.273,0.514-0.421,0.731C8.236,5.947,8.008,6.119,7.759,6.177
		C7.707,6.188,7.667,6.193,7.64,6.193c-0.133,0-0.262-0.038-0.39-0.115C7.124,6.001,7.033,5.902,6.98,5.78
		C6.896,5.594,6.853,5.382,6.853,5.144c0-0.116,0.008-0.233,0.024-0.35C6.919,4.455,6.94,4.213,6.94,4.07
		c0-0.063-0.005-0.143-0.016-0.238C6.909,3.721,6.866,3.633,6.797,3.569C6.729,3.506,6.649,3.474,6.559,3.474
		c-0.101,0-0.2,0.028-0.298,0.083S6.079,3.689,6.01,3.784c-0.063,0.08-0.104,0.163-0.119,0.25C5.875,4.122,5.864,4.269,5.859,4.476
		C5.849,4.921,5.833,5.308,5.812,5.637C5.806,5.817,5.79,5.944,5.764,6.018C5.748,6.077,5.719,6.12,5.676,6.149
		s-0.09,0.043-0.143,0.043c-0.053,0-0.097-0.018-0.131-0.056c-0.034-0.037-0.054-0.09-0.06-0.159V5.756
		c0-0.175,0.005-0.416,0.016-0.724c0.005-0.074,0.008-0.151,0.008-0.23l0.032-0.374c0.011-0.127,0.016-0.225,0.016-0.294
		c0-0.196-0.019-0.366-0.056-0.509C5.327,3.514,5.273,3.434,5.199,3.387c0.016-0.032,0.045-0.08,0.087-0.143
		c0.037-0.042,0.066-0.087,0.087-0.135c0.138,0.021,0.239,0.101,0.302,0.238C5.708,3.432,5.729,3.498,5.74,3.545l0.048,0.199
		c0.074-0.127,0.236-0.281,0.485-0.461c0.302-0.201,0.559-0.302,0.771-0.302c0.238,0,0.408,0.12,0.509,0.358
		c0.037,0.09,0.056,0.215,0.056,0.374c0,0.122-0.013,0.268-0.04,0.438L7.489,4.627C7.452,4.812,7.434,4.993,7.434,5.167
		c0,0.101,0.008,0.196,0.023,0.286c0.021,0.08,0.056,0.141,0.104,0.183S7.661,5.7,7.72,5.7c0.132,0,0.268-0.095,0.405-0.286
		c0.048-0.059,0.098-0.138,0.151-0.239C8.377,5,8.467,4.863,8.546,4.762C8.647,4.629,8.743,4.479,8.833,4.309z"/>
	<path d="M10.479,4.007l-0.024,1.789l1.232-1.486l-0.008,0.644L10.63,6.201c-0.101,0.106-0.151,0.376-0.151,0.811
		c0,0.185,0.011,0.458,0.032,0.819l0.032,0.461c0.01,0.201,0.016,0.326,0.016,0.374c0,0.165-0.035,0.332-0.104,0.501
		s-0.164,0.329-0.286,0.477c-0.117,0.143-0.249,0.268-0.397,0.374s-0.297,0.18-0.445,0.223c-0.159,0.048-0.302,0.072-0.429,0.072
		c-0.281,0-0.503-0.098-0.668-0.294c-0.127-0.148-0.19-0.35-0.19-0.604c0-0.17,0.032-0.347,0.095-0.533
		c0.143-0.397,0.4-0.835,0.771-1.312C9.148,7.25,9.466,6.874,9.858,6.439C9.88,6.418,9.914,6.385,9.962,6.34
		c0.048-0.045,0.086-0.087,0.115-0.127c0.029-0.04,0.046-0.083,0.052-0.131l0.024-0.691c-0.127,0.159-0.22,0.278-0.278,0.358
		C9.742,5.912,9.613,6.037,9.489,6.122S9.214,6.249,9.04,6.249c-0.117,0-0.224-0.021-0.322-0.063
		C8.62,6.143,8.547,6.082,8.499,6.002C8.382,5.827,8.324,5.639,8.324,5.438c0-0.106,0.016-0.217,0.047-0.334
		c0.111-0.408,0.345-0.785,0.7-1.129c0.339-0.334,0.692-0.546,1.058-0.636c0.074-0.016,0.14-0.024,0.199-0.024
		c0.09,0,0.172,0.016,0.247,0.048C10.24,3.448,9.97,3.585,9.763,3.776C9.7,3.834,9.636,3.901,9.572,3.975s-0.135,0.164-0.215,0.27
		C9.278,4.352,9.225,4.423,9.199,4.46c-0.138,0.186-0.24,0.349-0.306,0.489c-0.066,0.141-0.1,0.269-0.1,0.386
		c0,0.127,0.042,0.241,0.127,0.342C8.995,5.692,9.063,5.7,9.127,5.7c0.223,0,0.419-0.104,0.588-0.31
		c0.08-0.101,0.146-0.209,0.199-0.326c0.053-0.116,0.125-0.286,0.215-0.509c0.074-0.18,0.134-0.312,0.179-0.397
		C10.353,4.073,10.41,4.022,10.479,4.007z M8.952,9.954C8.989,9.97,9.032,9.978,9.08,9.978c0.095,0,0.199-0.031,0.31-0.091
		c0.111-0.061,0.22-0.145,0.326-0.25c0.138-0.143,0.249-0.306,0.334-0.489c0.085-0.183,0.127-0.37,0.127-0.561l-0.056-1.789
		C9.935,6.967,9.76,7.16,9.596,7.378c-0.175,0.238-0.342,0.458-0.501,0.66C9.01,8.149,8.928,8.3,8.849,8.491
		C8.77,8.682,8.714,8.873,8.682,9.063C8.661,9.19,8.65,9.289,8.65,9.357C8.65,9.665,8.751,9.863,8.952,9.954z"/>
	<path d="M14.175,4.325v0.016l-0.024,0.628c-0.08,0.08-0.156,0.165-0.23,0.254c-0.276,0.334-0.575,0.604-0.898,0.811
		c-0.18,0.117-0.355,0.175-0.525,0.175c-0.244,0-0.469-0.095-0.676-0.286c-0.238-0.223-0.357-0.535-0.357-0.938
		c0-0.175,0.033-0.362,0.099-0.561s0.158-0.388,0.274-0.569c0.122-0.19,0.257-0.343,0.405-0.457
		c0.148-0.114,0.297-0.171,0.445-0.171c0.169,0,0.293,0.053,0.37,0.159s0.115,0.241,0.115,0.405c0,0.186-0.042,0.386-0.127,0.6
		c-0.085,0.215-0.18,0.383-0.286,0.505l-0.644,0.708c0.042,0.074,0.094,0.131,0.155,0.171c0.061,0.04,0.126,0.06,0.195,0.06
		c0.18,0,0.405-0.122,0.676-0.366c0.138-0.122,0.347-0.347,0.628-0.676L14.008,4.5C14.072,4.42,14.127,4.362,14.175,4.325z
		 M11.917,5.295c0.005,0.021,0.045,0.008,0.119-0.04c0.132-0.101,0.281-0.281,0.445-0.541c0.148-0.239,0.223-0.472,0.223-0.7
		c0-0.175-0.059-0.321-0.175-0.437c-0.106,0.058-0.205,0.166-0.298,0.322s-0.171,0.333-0.235,0.529
		c-0.079,0.238-0.119,0.456-0.119,0.652C11.877,5.17,11.891,5.242,11.917,5.295z"/>
	<path d="M16.386,4.309l0.008,0.644c-0.117,0.191-0.193,0.324-0.23,0.398c-0.191,0.35-0.398,0.609-0.62,0.779
		c-0.117,0.096-0.254,0.143-0.414,0.143c-0.318,0-0.564-0.156-0.739-0.469c-0.143-0.233-0.247-0.573-0.31-1.018
		c-0.042-0.286-0.064-0.625-0.064-1.018V3.244c0-0.536,0.032-1.047,0.096-1.535c0.069-0.593,0.199-1.039,0.39-1.335
		c0.063-0.096,0.148-0.168,0.254-0.219c0.106-0.05,0.217-0.076,0.333-0.076c0.144,0,0.268,0.037,0.374,0.111
		c0.211,0.154,0.318,0.424,0.318,0.811c0,0.059-0.005,0.151-0.017,0.278c-0.058,0.525-0.195,1.076-0.413,1.654
		C15.14,3.5,14.931,3.978,14.724,4.364c-0.09,0.165-0.169,0.289-0.238,0.374c-0.021,0.021-0.032,0.047-0.032,0.08
		c0,0.032,0.008,0.063,0.024,0.095l0.08,0.254c0.106,0.26,0.217,0.432,0.333,0.517c0.096,0.08,0.188,0.12,0.278,0.12
		c0.122,0,0.249-0.066,0.382-0.199c0.169-0.17,0.366-0.454,0.589-0.851L16.282,4.5L16.386,4.309z M14.955,0.62
		c-0.096,0.01-0.175,0.087-0.239,0.23c-0.132,0.297-0.22,0.745-0.262,1.343c-0.042,0.573-0.059,1.087-0.048,1.542
		c0,0.254,0.003,0.416,0.008,0.485c0.059-0.079,0.135-0.225,0.231-0.437c0.095-0.212,0.19-0.451,0.286-0.716
		c0.27-0.779,0.405-1.394,0.405-1.844C15.336,0.816,15.209,0.615,14.955,0.62z"/>
	<path d="M17.999,0.421c-0.138,0.021-0.249,0.104-0.334,0.247c-0.042,0.063-0.074,0.114-0.095,0.151
		c-0.017,0.032-0.04,0.06-0.072,0.083c-0.031,0.023-0.066,0.036-0.104,0.036s-0.071-0.019-0.103-0.056
		c-0.032-0.032-0.048-0.066-0.048-0.104c0-0.069,0.048-0.146,0.143-0.23c0.138-0.127,0.303-0.225,0.493-0.294
		c0.08-0.027,0.151-0.04,0.215-0.04c0.159,0,0.272,0.072,0.342,0.215c0.122,0.233,0.19,0.541,0.207,0.922
		c0.005,0.117,0.008,0.263,0.008,0.438l-0.056,3.88c0.116,0.09,0.234,0.207,0.354,0.35s0.256,0.321,0.409,0.533l0.366,0.525
		c0.271,0.387,0.514,0.649,0.731,0.787c0.09,0.063,0.196,0.095,0.317,0.095c0.139,0,0.276-0.042,0.414-0.127l0.294-0.191
		c0.111-0.074,0.199-0.111,0.263-0.111c0.068,0,0.13,0.037,0.183,0.111c0.032,0.032,0.048,0.077,0.048,0.135
		c0,0.132-0.062,0.268-0.183,0.405c-0.106,0.122-0.235,0.223-0.386,0.302c-0.151,0.08-0.31,0.119-0.474,0.119
		c-0.153,0-0.312-0.044-0.473-0.131c-0.162-0.087-0.319-0.224-0.473-0.409l-0.295-0.39c-0.376-0.488-0.665-0.837-0.866-1.049
		c-0.144-0.143-0.249-0.223-0.318-0.239c-0.101,0.334-0.243,0.641-0.429,0.922c-0.139,0.196-0.286,0.353-0.445,0.469
		c-0.159,0.116-0.321,0.175-0.485,0.175c-0.212,0-0.421-0.104-0.628-0.31c-0.111-0.101-0.167-0.228-0.167-0.382
		c0-0.117,0.034-0.249,0.104-0.397c0.063-0.138,0.156-0.278,0.278-0.421s0.26-0.275,0.413-0.397c0.148-0.122,0.3-0.219,0.453-0.29
		c0.154-0.072,0.294-0.11,0.422-0.115c0.053-0.424,0.098-0.978,0.135-1.662c0.037-0.652,0.056-1.227,0.056-1.726l-0.008-0.445
		C18.19,1.062,18.121,0.602,17.999,0.421z M17.999,5.979c-0.153-0.005-0.304,0.035-0.449,0.119
		c-0.146,0.085-0.266,0.196-0.361,0.334c-0.122,0.164-0.183,0.339-0.183,0.525c0,0.132,0.036,0.259,0.111,0.381
		c0.047,0.074,0.105,0.111,0.175,0.111c0.132,0,0.268-0.074,0.405-0.223c0.048-0.048,0.087-0.098,0.119-0.151
		c0.127-0.26,0.19-0.57,0.19-0.93L17.999,5.979z"/>
	<path d="M21.514,6.193c-0.17,0-0.271-0.074-0.302-0.222c-0.027-0.101-0.046-0.31-0.056-0.628c-0.117,0.096-0.207,0.18-0.271,0.254
		c-0.229,0.233-0.464,0.406-0.708,0.517c-0.132,0.058-0.272,0.087-0.421,0.087c-0.212,0-0.376-0.056-0.493-0.167
		c-0.164-0.148-0.246-0.355-0.246-0.62c0-0.387,0.214-0.785,0.644-1.193c0.345-0.333,0.736-0.606,1.177-0.819
		c0.334-0.159,0.606-0.238,0.819-0.238c0.084,0,0.15,0.011,0.198,0.032c0.111,0.048,0.167,0.122,0.167,0.223
		c-0.085-0.026-0.167-0.04-0.246-0.04c-0.054,0-0.122,0.011-0.207,0.032c-0.196,0.047-0.403,0.128-0.62,0.242
		c-0.218,0.114-0.416,0.245-0.597,0.394c-0.418,0.345-0.628,0.705-0.628,1.082c0,0.164,0.03,0.285,0.092,0.361
		c0.061,0.077,0.142,0.116,0.242,0.116c0.159,0,0.331-0.064,0.517-0.191c0.196-0.127,0.353-0.268,0.47-0.421
		c0.079-0.106,0.161-0.22,0.246-0.342c0.186-0.26,0.337-0.424,0.453-0.493c0.037-0.021,0.08-0.032,0.127-0.032
		c0.043,0,0.074,0.005,0.096,0.016c0,0.037-0.021,0.103-0.063,0.199c-0.133,0.265-0.23,0.487-0.294,0.667
		c-0.032,0.085-0.048,0.183-0.048,0.294c0,0.132,0.021,0.214,0.063,0.247c0.021,0.021,0.056,0.032,0.104,0.032
		c0.058,0,0.122-0.026,0.19-0.08c0.106-0.085,0.212-0.209,0.318-0.374l0.104-0.151l0.461-0.684l0.023,0.596
		c-0.143,0.233-0.264,0.423-0.361,0.568c-0.099,0.146-0.195,0.269-0.29,0.37C21.945,6.071,21.726,6.193,21.514,6.193z"/>
	<path d="M26.562,4.134L26.331,5c-0.127,0.111-0.247,0.204-0.358,0.278c-0.302,0.217-0.517,0.403-0.644,0.557
		c-0.079,0.09-0.133,0.188-0.159,0.294c-0.016,0.143-0.023,0.281-0.023,0.414c0,0.132,0.019,0.39,0.056,0.771l0.023,0.207
		c0.037,0.307,0.056,0.562,0.056,0.763c0,0.18-0.013,0.334-0.04,0.461c-0.079,0.429-0.307,0.819-0.684,1.169
		c-0.186,0.18-0.384,0.314-0.596,0.401s-0.425,0.131-0.637,0.131c-0.238,0-0.455-0.053-0.651-0.159s-0.345-0.254-0.445-0.445
		c-0.09-0.154-0.135-0.329-0.135-0.525c0-0.26,0.082-0.527,0.246-0.803c0.159-0.281,0.35-0.546,0.572-0.795
		c0.085-0.106,0.181-0.209,0.286-0.31c0.371-0.387,0.642-0.689,0.812-0.907c0.243-0.307,0.397-0.585,0.461-0.834
		c0.031-0.117,0.052-0.245,0.06-0.386c0.008-0.14,0.012-0.316,0.012-0.529c0-0.27,0.003-0.49,0.008-0.66
		c-0.037,0.132-0.094,0.278-0.171,0.437c-0.077,0.159-0.166,0.31-0.267,0.454c-0.105,0.153-0.214,0.287-0.325,0.401
		c-0.111,0.114-0.215,0.192-0.311,0.234c-0.159,0.069-0.297,0.104-0.413,0.104c-0.323,0-0.485-0.241-0.485-0.724
		c0-0.275,0.066-0.684,0.199-1.224c0.095-0.382,0.215-0.761,0.357-1.137c0.138,0.09,0.24,0.182,0.306,0.274
		c0.066,0.093,0.1,0.2,0.1,0.322c0,0.064-0.008,0.135-0.023,0.215c-0.048,0.175-0.099,0.334-0.151,0.477
		c-0.085,0.233-0.151,0.436-0.198,0.608C23.119,4.708,23.095,4.863,23.095,5c0,0.095,0.021,0.178,0.063,0.247
		c0.064,0.048,0.128,0.071,0.191,0.071c0.096,0,0.198-0.047,0.31-0.143c0.128-0.116,0.276-0.318,0.445-0.604
		c0.08-0.143,0.173-0.326,0.278-0.549c0.175-0.339,0.3-0.779,0.374-1.32c0.159,0.053,0.289,0.188,0.39,0.406
		c0.074,0.159,0.111,0.321,0.111,0.485c0,0.042-0.003,0.074-0.008,0.096c0,0.016-0.014,0.212-0.04,0.588
		c0,0.122-0.003,0.212-0.008,0.271l-0.024,0.485l-0.016,0.35c0.042-0.059,0.119-0.137,0.23-0.235c0.111-0.098,0.23-0.2,0.358-0.306
		l0.405-0.35C26.299,4.375,26.435,4.256,26.562,4.134z M24.526,6.289c-0.026,0.01-0.066,0.05-0.119,0.119
		c-0.122,0.143-0.273,0.339-0.453,0.588l-0.255,0.342c-0.196,0.265-0.308,0.418-0.334,0.461c-0.085,0.127-0.166,0.273-0.242,0.438
		c-0.077,0.164-0.137,0.329-0.179,0.493c-0.032,0.127-0.048,0.255-0.048,0.382c0,0.254,0.074,0.472,0.223,0.652
		C23.23,9.9,23.36,9.97,23.509,9.97c0.063,0,0.13-0.014,0.198-0.04c0.181-0.074,0.355-0.233,0.525-0.477
		c0.073-0.106,0.136-0.214,0.187-0.326c0.05-0.111,0.083-0.209,0.1-0.294c0.042-0.249,0.063-0.596,0.063-1.042
		C24.582,7.42,24.563,6.919,24.526,6.289z"/>
	<path d="M28.867,4.325v0.016l-0.023,0.628c-0.08,0.08-0.156,0.165-0.23,0.254c-0.275,0.334-0.575,0.604-0.898,0.811
		c-0.18,0.117-0.354,0.175-0.524,0.175c-0.245,0-0.469-0.095-0.676-0.286c-0.238-0.223-0.357-0.535-0.357-0.938
		c0-0.175,0.033-0.362,0.1-0.561c0.065-0.199,0.157-0.388,0.273-0.569c0.122-0.19,0.258-0.343,0.406-0.457
		c0.147-0.114,0.296-0.171,0.445-0.171c0.17,0,0.293,0.053,0.37,0.159s0.115,0.241,0.115,0.405c0,0.186-0.042,0.386-0.127,0.6
		c-0.085,0.215-0.181,0.383-0.286,0.505l-0.645,0.708c0.043,0.074,0.095,0.131,0.155,0.171c0.061,0.04,0.126,0.06,0.196,0.06
		c0.18,0,0.405-0.122,0.676-0.366c0.138-0.122,0.347-0.347,0.628-0.676L28.701,4.5C28.763,4.42,28.82,4.362,28.867,4.325z
		 M26.609,5.295c0.005,0.021,0.045,0.008,0.119-0.04c0.133-0.101,0.281-0.281,0.446-0.541c0.148-0.239,0.223-0.472,0.223-0.7
		c0-0.175-0.059-0.321-0.175-0.437c-0.106,0.058-0.207,0.166-0.299,0.322s-0.171,0.333-0.234,0.529
		c-0.079,0.238-0.119,0.456-0.119,0.652C26.569,5.17,26.583,5.242,26.609,5.295z"/>
	<path d="M29.687,5.732c0.072-0.058,0.232-0.225,0.477-0.501c0.121-0.143,0.299-0.36,0.531-0.652
		c0.186-0.223,0.301-0.355,0.344-0.397l-0.121,0.779c-0.105,0.111-0.217,0.238-0.334,0.381c-0.242,0.313-0.508,0.557-0.795,0.731
		c-0.152,0.09-0.307,0.135-0.461,0.135c-0.111,0-0.193-0.037-0.246-0.111s-0.08-0.169-0.08-0.286c0-0.164,0.07-0.403,0.207-0.716
		c0.133-0.291,0.266-0.53,0.398-0.715c0.08-0.111,0.129-0.18,0.15-0.207c0.064-0.085,0.105-0.151,0.127-0.199l-0.166-0.016
		l-0.16-0.024c-0.105,0.127-0.23,0.308-0.373,0.541c-0.105,0.175-0.223,0.342-0.35,0.501V4.341c0.043-0.059,0.117-0.154,0.223-0.287
		l0.111-0.135c0.021-0.021,0.062-0.074,0.127-0.159c-0.08-0.074-0.119-0.209-0.119-0.405c0-0.111,0.006-0.199,0.016-0.263
		c0.012-0.095,0.035-0.183,0.076-0.262c0.039-0.08,0.088-0.143,0.146-0.191c0.068-0.053,0.139-0.08,0.207-0.08
		c0.08,0,0.156,0.029,0.23,0.088c0.064,0.042,0.113,0.097,0.15,0.163c0.037,0.066,0.057,0.139,0.057,0.219
		c0,0.032-0.004,0.056-0.008,0.072C30.037,3.244,29.97,3.4,29.853,3.569c0.027,0.005,0.068,0.008,0.127,0.008h0.127h0.057
		c0.068,0,0.137,0.028,0.203,0.083c0.064,0.055,0.086,0.107,0.059,0.155c-0.084,0.186-0.199,0.4-0.342,0.644
		c-0.158,0.275-0.305,0.538-0.438,0.787c-0.047,0.085-0.1,0.188-0.158,0.31c-0.043,0.095-0.064,0.154-0.064,0.175
		c0,0.08,0.021,0.119,0.064,0.119C29.525,5.851,29.591,5.812,29.687,5.732z M29.726,3.053c0.006-0.048-0.016-0.093-0.064-0.135
		L29.63,2.902h-0.016c-0.027,0.01-0.051,0.047-0.072,0.111c-0.021,0.063-0.031,0.132-0.031,0.207c0,0.085,0.016,0.151,0.047,0.199
		C29.644,3.286,29.699,3.164,29.726,3.053z"/>
</g>
<g>
	<path fill="#010101" d="M32.964,5.255c0.314-0.404,1.324-1.428,1.936-1.172c-0.148-0.322-0.238-0.674-0.271-1.022
		c-0.145-1.453,1.277-2.41,2.588-2.438c1.389-0.029,2.752,1.17,2.879,2.538c0.057,0.624-0.213,1.24-0.619,1.698
		C39,5.395,38.228,5.521,37.525,5.494c0,0.001,0,0.002,0,0.005c0.859,0.461,1.527,1.823,1.365,2.816
		c0.018,0.142-0.051,0.285-0.217,0.317c-0.197,0.04-0.301-0.123-0.324-0.295c-0.072,0.034-0.176,0.023-0.227-0.099
		c-0.078-0.181,0.068-0.472,0.066-0.662c-0.006-0.367-0.141-0.75-0.395-1.02c0.104,0.562,0.133,1.129,0.096,1.729
		c-0.031,0.458-0.02,1.005-0.531,1.191c-0.279,0.104-0.586,0.144-0.898,0.135c0.051,0.274-0.225,0.428-0.465,0.396
		c-0.24-0.034-0.398-0.305-0.232-0.503c-0.137-0.038-0.27-0.083-0.402-0.137c-0.049,0.236-0.328,0.284-0.512,0.18
		c-0.086-0.049-0.152-0.135-0.17-0.232c-0.018-0.088,0.016-0.213,0.09-0.271c-0.348-0.24-0.635-0.547-0.812-0.906
		c-0.016-0.031-0.014-0.069,0.012-0.094c0.258-0.247,0.518-0.494,0.771-0.744c-0.035-0.016-0.066-0.042-0.084-0.068
		c-0.021-0.032-0.033-0.071-0.041-0.109c0-0.002,0-0.005,0-0.007c-0.139,0.239-0.5,0.382-0.744,0.416
		c-0.215,0.03-0.471-0.094-0.463-0.295c-0.285,0.174-0.721,0.13-0.85-0.226C32.347,6.431,32.599,5.724,32.964,5.255 M33.494,7.063
		c0.037-0.029,0.074,0.03,0.047,0.062c-0.012,0.012-0.021,0.023-0.033,0.033c-0.057,0.33,0.436,0.239,0.604,0.179
		c0.199-0.072,0.338-0.205,0.48-0.351c0.027-0.027,0.074,0,0.064,0.036c-0.002,0.001-0.002,0.004-0.004,0.005
		c0.01,0.015,0.025,0.028,0.033,0.041c0.014,0.022,0.023,0.044,0.039,0.064c0.014,0.02,0.031,0.04,0.049,0.051
		c0.023,0.011,0.043,0.009,0.064,0.019c0.07-0.07,0.143-0.138,0.211-0.208c0.332-0.344,0.768-0.783,0.959-1.266
		c-0.414,0.018-0.76,0.212-1.062,0.491c-0.229,0.209-0.268,0.529-0.492,0.731c-0.154,0.141-0.295,0.076-0.307-0.059
		c-0.271,0.193-0.668,0.075-0.613-0.333c0.051-0.345,0.473-0.599,0.738-0.763c0.408-0.25,0.877-0.432,1.359-0.449
		C35.57,5.299,35.519,5.24,35.5,5.167c-0.02-0.072,0.008-0.172,0.068-0.227C35.529,4.91,35.49,4.876,35.449,4.84
		c-0.172-0.153-0.312-0.333-0.428-0.529c-0.557-0.355-1.244,0.287-1.65,0.7c-0.199,0.199-0.367,0.412-0.506,0.656
		c-0.115,0.208-0.189,0.434-0.246,0.665C32.486,6.884,32.947,7.486,33.494,7.063 M33.714,6.854c0.146,0.112,0.342-0.006,0.459-0.102
		c0-0.002,0-0.004,0-0.006c0.004-0.008,0.012-0.01,0.018-0.01c0.004-0.001,0.006-0.004,0.008-0.007
		c0.033-0.028,0.092,0.011,0.064,0.049c-0.002,0-0.002,0.001-0.004,0.001c0.141,0.046,0.23,0.009,0.268-0.113
		c0.049-0.087,0.088-0.182,0.133-0.27c0.086-0.165,0.25-0.292,0.389-0.408c0.283-0.235,0.631-0.368,0.998-0.376h0.002
		c0.02-0.068,0.037-0.137,0.047-0.208c-0.102,0.057-0.254,0.048-0.373-0.004c-0.014-0.005-0.027-0.014-0.039-0.021
		c-0.002,0.001-0.004,0.002-0.006,0.004c-0.475,0.093-0.926,0.278-1.35,0.509c-0.234,0.126-0.447,0.283-0.611,0.496
		C33.597,6.536,33.597,6.692,33.714,6.854 M35.255,9.132c0.781,0.426,2.354,0.658,2.467-0.551c0.102-1.077-0.09-2.02-0.322-3.055
		c-0.418-0.054-0.789-0.097-1.141-0.215c-0.023,0.647-0.547,1.171-0.951,1.632c-0.332,0.379-0.711,0.718-1.076,1.064
		C33.875,8.346,35.017,9.001,35.255,9.132 M34.796,9.283c0.002,0.069,0.057,0.129,0.109,0.166c0.059,0.039,0.137,0.058,0.209,0.046
		c0.09-0.015,0.141-0.082,0.191-0.151c-0.156-0.067-0.305-0.147-0.445-0.237C34.837,9.167,34.794,9.211,34.796,9.283 M35.13,4.1
		c0.885-0.363,0.916-1.592,0.953-2.409c0.002-0.043,0.057-0.089,0.098-0.057c0.533,0.41,1.107,0.562,1.775,0.562
		c0.336,0,1.15-0.061,1.359-0.408c-0.021-0.022-0.041-0.045-0.061-0.067c-0.002-0.001-0.004-0.002-0.006-0.004V1.716
		c-0.504-0.5-1.217-0.83-1.877-0.905C36.13,0.67,34.886,1.645,34.82,2.886C34.796,3.313,34.921,3.73,35.13,4.1 M35.583,4.706
		c0.445,0.461,1.031,0.549,1.623,0.646c0.609-0.077,1.213-0.03,1.779-0.334c0.605-0.326,0.896-1.043,0.934-1.694
		c0.033-0.555-0.18-1.049-0.527-1.451C39.179,2.54,37.146,2.3,36.789,2.147c-0.184-0.079-0.346-0.166-0.512-0.274
		c-0.145-0.093-0.076,0.077-0.082,0.208C36.179,2.39,36.14,2.697,36.078,3c-0.107,0.521-0.363,1.022-0.879,1.216
		C35.31,4.394,35.441,4.559,35.583,4.706 M35.636,5.143c0.018,0.063,0.088,0.106,0.141,0.134c0.113,0.06,0.24,0.06,0.314-0.027
		c-0.141-0.058-0.277-0.131-0.412-0.226C35.652,5.059,35.621,5.089,35.636,5.143 M35.832,9.774c0.039,0.072,0.121,0.106,0.197,0.121
		c0.076,0.016,0.16-0.002,0.227-0.042c0.092-0.055,0.107-0.147,0.127-0.243c-0.18-0.011-0.359-0.039-0.537-0.083
		C35.824,9.609,35.791,9.693,35.832,9.774 M37.763,6.396c0.322,0.206,0.451,0.628,0.514,0.984c0.023,0.144,0.031,0.294,0.004,0.438
		c-0.021,0.105-0.148,0.442,0.064,0.387c0.002-0.028,0.008-0.056,0.014-0.08c0.012-0.039,0.066-0.03,0.068,0.009
		c0.01,0.149,0.006,0.43,0.227,0.413c0.084-0.006,0.131-0.058,0.154-0.123c-0.016-1.181-0.475-1.979-1.25-2.821
		C37.644,5.869,37.71,6.132,37.763,6.396"/>
	<path fill="#010101" d="M33.582,0.736c0.174-0.201,0.48-0.481,0.768-0.535c0.049-0.025,0.121-0.022,0.166-0.015
		c0.1,0.02,0.188,0.072,0.266,0.136c0.053,0.045,0.098,0.102,0.123,0.167c0.166,0.23-0.264,0.88-0.35,1.017
		c-0.281,0.433-0.957,1.284-1.49,0.728C32.669,1.826,33.324,1.037,33.582,0.736 M33.548,2.227c0.197-0.027,0.363-0.204,0.498-0.335
		c0.109-0.106,0.197-0.231,0.285-0.354c0.098-0.135,0.432-0.564,0.467-0.846c0-0.004,0-0.008,0.002-0.012
		c0.006-0.046,0.002-0.09-0.012-0.125c-0.023,0.006-0.047,0.002-0.068-0.019c-0.525-0.628-1.404,0.732-1.553,1.196
		C33.099,1.948,33.105,2.292,33.548,2.227"/>
	<path fill="#FFE531" d="M34.82,2.886C34.796,3.313,34.921,3.73,35.13,4.1c0.885-0.363,0.916-1.592,0.953-2.409
		c0.002-0.043,0.057-0.089,0.098-0.057c0.533,0.41,1.107,0.562,1.775,0.562c0.336,0,1.15-0.061,1.359-0.408
		c-0.021-0.021-0.041-0.045-0.061-0.067c-0.002-0.001-0.004-0.002-0.006-0.004V1.716c-0.504-0.5-1.217-0.83-1.877-0.905
		C36.13,0.67,34.886,1.645,34.82,2.886"/>
	<path fill="#010101" d="M38.185,3.826c-0.102,0.124-0.131,0.367,0.027,0.46c0.039,0.022,0.092-0.014,0.078-0.06
		c-0.021-0.064-0.07-0.118-0.062-0.188c0.006-0.062,0.035-0.124,0.078-0.169c0.092-0.101,0.221-0.175,0.359-0.178
		c0.029,0,0.039-0.048,0.006-0.055C38.486,3.601,38.306,3.681,38.185,3.826"/>
	<path fill="#010101" d="M38.566,2.86c-0.025,0.072-0.014,0.192,0.055,0.235c0.027,0.016,0.072,0.001,0.076-0.031
		c0.014-0.07-0.066-0.194,0.049-0.211c0.084-0.013,0.137,0.051,0.137,0.128c0,0.041,0.064,0.053,0.074,0.01
		c0.031-0.149-0.084-0.287-0.242-0.257C38.648,2.748,38.587,2.794,38.566,2.86"/>
	<path fill="#010101" d="M38.929,3.918c-0.049,0.093-0.043,0.174-0.004,0.272c0.016,0.039,0.055,0.061,0.096,0.039
		c0.059-0.033,0.105-0.08,0.115-0.147c0.012-0.068-0.027-0.128-0.066-0.177c-0.014-0.019-0.033-0.019-0.049-0.009V3.895
		C38.992,3.877,38.949,3.886,38.929,3.918"/>
	<path fill="#010101" d="M39.388,2.721c-0.152,0.013-0.232,0.199-0.137,0.322c0.02,0.028,0.062,0.003,0.062-0.026
		c0.002-0.05-0.029-0.108,0.002-0.156c0.018-0.026,0.049-0.037,0.08-0.033c0.09,0.011,0.105,0.108,0.088,0.181
		c-0.01,0.035,0.043,0.06,0.059,0.026c0.033-0.067,0.057-0.162,0.01-0.229C39.515,2.751,39.455,2.715,39.388,2.721"/>
	<path fill="#010101" d="M40.085,4.971c-0.025,0.035-0.006,0.074,0.025,0.092c0.02,0.07,0.062,0.147,0.143,0.128
		c0.066-0.017,0.102-0.089,0.117-0.15c0.014-0.069,0.02-0.15-0.045-0.193c-0.006-0.002-0.01-0.004-0.014-0.006
		c0.021-0.053,0.041-0.107,0.057-0.164c0.094,0.098,0.254,0.148,0.385,0.157c-0.062,0.129-0.131,0.252-0.23,0.362
		c-0.035,0.036-0.016,0.089,0.021,0.107c0.037,0.152,0.314,0.161,0.35-0.031c0.02-0.119-0.068-0.152-0.168-0.146
		c0.076-0.129,0.135-0.271,0.17-0.417c0.002-0.01,0-0.021-0.006-0.029c0-0.01-0.004-0.022-0.016-0.028
		c-0.164-0.098-0.322-0.188-0.463-0.323c-0.033-0.032-0.104-0.023-0.111,0.028C40.263,4.578,40.21,4.786,40.085,4.971"/>
	<path fill="#010101" d="M40.669,3.324c-0.025,0.113,0.029,0.242,0.156,0.251c0.061,0.003,0.119-0.018,0.162-0.057
		c-0.006,0.116-0.018,0.233-0.037,0.349c-0.004,0.019,0,0.038,0.01,0.05c0.004,0.088,0.059,0.198,0.162,0.177
		c0.076-0.015,0.131-0.096,0.158-0.163c0.025-0.06,0.053-0.172-0.023-0.209c-0.055-0.026-0.111-0.01-0.164,0.019
		c0.018-0.149,0.027-0.301,0.035-0.454c0.002-0.042-0.045-0.075-0.084-0.063c-0.115,0.036-0.213,0.041-0.33,0.014
		c-0.035-0.009-0.057,0.031-0.033,0.057c0.002,0.001,0.002,0.001,0.004,0.002C40.677,3.305,40.671,3.313,40.669,3.324"/>
	<path fill="#010101" d="M40.912,1.568c-0.018,0.012-0.033,0.032-0.031,0.054c0.004,0.062,0.018,0.126,0.043,0.184
		c0.012,0.023,0.045,0.037,0.068,0.028c0.064-0.024,0.139-0.036,0.201-0.067c0.01,0.133,0.041,0.268,0.051,0.399
		c0.002,0.031,0.027,0.052,0.053,0.056c0.09,0.123,0.303,0.147,0.35-0.035c0.051-0.201-0.164-0.222-0.301-0.143
		c-0.004,0-0.006-0.001-0.01-0.003c-0.023-0.126-0.053-0.252-0.078-0.38c0-0.001,0.002-0.002,0.002-0.005
		c0-0.057-0.01-0.102-0.041-0.151c-0.014-0.023-0.043-0.038-0.072-0.03C41.068,1.5,40.982,1.524,40.912,1.568"/>
	<path fill="#010101" d="M41.23,0.667c-0.014,0.019-0.016,0.039-0.01,0.056c-0.002,0.005-0.004,0.009-0.004,0.015
		c0.002,0.081,0.023,0.25,0.135,0.252c0.076,0.002,0.127-0.071,0.154-0.133c0.029-0.064,0.051-0.163-0.002-0.22
		c-0.031-0.033-0.072-0.041-0.111-0.037c0.031-0.061,0.055-0.125,0.072-0.193c0.068,0.043,0.133,0.094,0.191,0.149
		c0.053,0.052,0.109,0.107,0.174,0.145c-0.021,0.036-0.045,0.069-0.072,0.102c-0.059,0.065-0.119,0.126-0.178,0.189
		c-0.01,0.012-0.02,0.022-0.027,0.031c-0.021,0.024-0.016,0.054,0.002,0.073c-0.004,0.005-0.008,0.009-0.008,0.015
		c-0.002,0.028,0.004,0.078,0.02,0.123c0,0.011,0.004,0.021,0.014,0.031c0.021,0.042,0.055,0.07,0.104,0.053
		c0.006-0.001,0.01-0.006,0.016-0.009c0.061,0,0.119-0.029,0.148-0.087c0.035-0.071,0.027-0.144-0.008-0.207
		c0.002-0.04-0.008-0.077-0.037-0.103c0-0.001-0.002-0.001-0.002-0.002c0.025-0.031,0.049-0.062,0.068-0.096
		c0.029-0.049,0.082-0.126,0.064-0.189c0.018-0.004,0.031-0.024,0.014-0.042c-0.137-0.155-0.299-0.293-0.459-0.424
		c-0.035-0.028-0.078-0.009-0.084,0.035C41.384,0.365,41.339,0.532,41.23,0.667"/>
	<path fill="#010101" d="M41.933,3.311c-0.004,0.014,0,0.025,0.008,0.036c-0.014,0.018-0.016,0.042,0.002,0.063
		c0.059,0.065,0.15,0.149,0.246,0.104c0.064-0.031,0.094-0.111,0.092-0.18c-0.002-0.063-0.029-0.149-0.1-0.167
		c-0.047-0.01-0.088,0.001-0.123,0.022c0.012-0.084,0.018-0.17,0.02-0.256c0.043,0.058,0.104,0.11,0.158,0.141
		c0.088,0.05,0.191,0.075,0.293,0.072C42.494,3.234,42.457,3.318,42.41,3.4c-0.021,0.026-0.037,0.058-0.051,0.083
		c-0.012,0.023-0.006,0.045,0.01,0.061v0.004c0.029,0.069,0.145,0.124,0.217,0.083c0.059-0.035,0.078-0.104,0.072-0.171
		c-0.004-0.057-0.035-0.123-0.094-0.139c0.039-0.087,0.062-0.177,0.064-0.271c0.01-0.01,0.01-0.024,0.002-0.035V3.013h0.004
		c0.037-0.005,0.023-0.06-0.008-0.061c-0.213-0.017-0.412-0.147-0.564-0.289c-0.027-0.026-0.074-0.01-0.074,0.031
		C41.986,2.902,41.996,3.108,41.933,3.311"/>
</g>
</svg>
