<?xml version="1.0" encoding="utf-8"?>
<!-- Generator: Adobe Illustrator 15.0.0, SVG Export Plug-In . SVG Version: 6.00 Build 0)  -->
<!DOCTYPE svg PUBLIC "-//W3C//DTD SVG 1.1//EN" "http://www.w3.org/Graphics/SVG/1.1/DTD/svg11.dtd">
<svg version="1.1" id="Layer_1" xmlns="http://www.w3.org/2000/svg" xmlns:xlink="http://www.w3.org/1999/xlink" x="0px" y="0px"
	 width="34.5px" height="8.375px" viewBox="0 0 34.5 8.375" enable-background="new 0 0 34.5 8.375" xml:space="preserve">
<g>
	<path d="M3.491,4.64H1.978L1.626,5.858H0.814l1.466-4.5h0.936l1.466,4.5h-0.84L3.491,4.64z M3.312,4.014L3.154,3.463
		C3.01,2.989,2.879,2.473,2.748,1.977H2.721C2.597,2.479,2.466,2.989,2.321,3.463L2.163,4.014H3.312z"/>
	<path d="M5.172,2.479h0.654L5.88,2.934h0.028c0.303-0.296,0.647-0.537,1.108-0.537c0.723,0,1.039,0.488,1.039,1.342v2.12H7.264
		V3.842c0-0.558-0.158-0.764-0.53-0.764c-0.296,0-0.489,0.145-0.771,0.42v2.36H5.172V2.479z"/>
	<path d="M9.282,5.749V5.721C9.11,5.611,8.979,5.432,8.979,5.156c0-0.261,0.179-0.488,0.372-0.626V4.503
		C9.124,4.331,8.91,4.007,8.91,3.608c0-0.777,0.626-1.211,1.335-1.211c0.186,0,0.358,0.034,0.496,0.083h1.211v0.585h-0.62
		c0.11,0.131,0.193,0.337,0.193,0.571c0,0.75-0.564,1.149-1.28,1.149c-0.145,0-0.31-0.027-0.461-0.089
		C9.681,4.785,9.619,4.868,9.619,5.019c0,0.192,0.138,0.31,0.55,0.31h0.599c0.812,0,1.238,0.248,1.238,0.833
		c0,0.667-0.702,1.19-1.803,1.19C9.399,7.352,8.8,7.062,8.8,6.471C8.8,6.189,8.972,5.941,9.282,5.749z M10.328,6.835
		c0.543,0,0.915-0.254,0.915-0.543c0-0.262-0.213-0.337-0.599-0.337h-0.461c-0.186,0-0.331-0.014-0.461-0.048
		C9.543,6.044,9.461,6.196,9.461,6.354C9.461,6.657,9.791,6.835,10.328,6.835z M10.83,3.608c0-0.419-0.254-0.667-0.585-0.667
		c-0.33,0-0.592,0.241-0.592,0.667c0,0.434,0.262,0.682,0.592,0.682C10.569,4.29,10.83,4.042,10.83,3.608z"/>
	<path d="M13.832,2.397c0.916,0,1.397,0.661,1.397,1.604c0,0.151-0.014,0.289-0.034,0.372h-2.147
		c0.069,0.612,0.455,0.957,0.998,0.957c0.289,0,0.537-0.089,0.785-0.248l0.268,0.496c-0.323,0.213-0.729,0.365-1.156,0.365
		c-0.936,0-1.666-0.654-1.666-1.769C12.277,3.071,13.041,2.397,13.832,2.397z M14.541,3.87c0-0.537-0.227-0.86-0.688-0.86
		c-0.399,0-0.743,0.296-0.812,0.86H14.541z"/>
	<path d="M15.987,1h0.792v4.033c0,0.192,0.089,0.261,0.172,0.261c0.034,0,0.062,0,0.124-0.014l0.103,0.592
		c-0.096,0.042-0.234,0.069-0.42,0.069c-0.564,0-0.771-0.365-0.771-0.95V1z"/>
	<path fill="#4D99D3" d="M17.921,1.358h0.798v3.826h1.872v0.674h-2.67V1.358z"/>
	<path fill="#4D99D3" d="M23.153,3.698c-0.007-0.358-0.158-0.661-0.612-0.661c-0.337,0-0.654,0.151-0.95,0.33l-0.289-0.53
		c0.372-0.234,0.846-0.44,1.383-0.44c0.846,0,1.259,0.516,1.259,1.459v2.002h-0.647l-0.062-0.372h-0.021
		c-0.303,0.254-0.647,0.454-1.046,0.454c-0.592,0-1.005-0.399-1.005-0.991C21.164,4.228,21.77,3.849,23.153,3.698z M22.417,5.322
		c0.275,0,0.489-0.138,0.736-0.372V4.193c-0.915,0.117-1.218,0.358-1.218,0.695C21.935,5.191,22.134,5.322,22.417,5.322z"/>
	<path fill="#4D99D3" d="M25.081,6.608c0.358,0,0.564-0.241,0.674-0.578l0.062-0.213l-1.328-3.337h0.805l0.585,1.659
		c0.096,0.296,0.193,0.633,0.296,0.949h0.027c0.083-0.31,0.172-0.646,0.255-0.949l0.509-1.659h0.764l-1.225,3.53
		c-0.282,0.764-0.633,1.239-1.37,1.239c-0.186,0-0.316-0.027-0.44-0.069l0.145-0.619C24.902,6.581,24.999,6.608,25.081,6.608z"/>
	<path fill="#4D99D3" d="M29.61,2.397c0.916,0,1.397,0.661,1.397,1.604c0,0.151-0.014,0.289-0.034,0.372h-2.147
		c0.069,0.612,0.455,0.957,0.998,0.957c0.289,0,0.537-0.089,0.785-0.248l0.268,0.496c-0.323,0.213-0.729,0.365-1.156,0.365
		c-0.936,0-1.666-0.654-1.666-1.769C28.055,3.071,28.819,2.397,29.61,2.397z M30.319,3.87c0-0.537-0.227-0.86-0.688-0.86
		c-0.399,0-0.743,0.296-0.812,0.86H30.319z"/>
	<path fill="#4D99D3" d="M31.765,2.479h0.654l0.055,0.599h0.027c0.241-0.44,0.6-0.681,0.957-0.681c0.172,0,0.282,0.021,0.386,0.069
		l-0.138,0.688C33.589,3.12,33.5,3.099,33.355,3.099c-0.269,0-0.592,0.186-0.798,0.695v2.064h-0.792V2.479z"/>
</g>
</svg>
