<?xml version="1.0" encoding="utf-8"?>
<!-- Generator: Adobe Illustrator 15.0.0, SVG Export Plug-In . SVG Version: 6.00 Build 0)  -->
<!DOCTYPE svg PUBLIC "-//W3C//DTD SVG 1.1//EN" "http://www.w3.org/Graphics/SVG/1.1/DTD/svg11.dtd">
<svg version="1.1" id="Layer_1" xmlns="http://www.w3.org/2000/svg" xmlns:xlink="http://www.w3.org/1999/xlink" x="0px" y="0px"
	 width="43.583px" height="10.575px" viewBox="0 0 43.583 10.575" enable-background="new 0 0 43.583 10.575" xml:space="preserve">
<g>
	<path d="M15.28,3.418c0.101-0.35,0.268-0.784,0.501-1.304c0.239-0.541,0.488-1.021,0.748-1.439
		c0.138-0.217,0.259-0.382,0.366-0.493C17.006,0.061,17.101,0,17.181,0c0.106,0,0.159,0.093,0.159,0.278
		c0,0.048-0.005,0.125-0.016,0.231l-0.032,0.207l-0.167,5.184c-0.011,0.212,0.026,0.384,0.111,0.517
		c0.084,0.133,0.196,0.199,0.334,0.199c0.069,0,0.125-0.013,0.167-0.04c0.042-0.026,0.087-0.066,0.135-0.119
		c0.053-0.059,0.094-0.1,0.124-0.124c0.029-0.023,0.067-0.036,0.115-0.036c0.08,0,0.135,0.008,0.167,0.024s0.05,0.04,0.056,0.071
		c0.005,0.032,0.008,0.093,0.008,0.183c0,0.063-0.05,0.132-0.151,0.207c-0.111,0.08-0.202,0.12-0.271,0.12h-0.238
		c-0.26,0-0.485-0.096-0.676-0.287c-0.085-0.084-0.155-0.183-0.211-0.294s-0.094-0.225-0.115-0.342
		c-0.048-0.217-0.071-0.514-0.071-0.891L16.6,4.85l0.008-0.247V4.142c-0.159-0.096-0.339-0.175-0.541-0.239
		c-0.201-0.063-0.397-0.095-0.588-0.095c-0.021,0-0.053,0.063-0.095,0.191c-0.08,0.249-0.13,0.416-0.151,0.5l-0.12,0.39
		c-0.095,0.345-0.209,0.71-0.342,1.097c-0.207,0.609-0.413,1.071-0.62,1.383c-0.09,0.132-0.19,0.233-0.302,0.302
		s-0.226,0.104-0.342,0.104c-0.122,0-0.242-0.033-0.361-0.1c-0.12-0.066-0.222-0.163-0.306-0.29
		c-0.196-0.271-0.294-0.604-0.294-1.002c0-0.191,0.026-0.4,0.08-0.628c0.074-0.297,0.191-0.585,0.35-0.867
		c0.159-0.281,0.355-0.53,0.588-0.747c0.244-0.228,0.512-0.406,0.803-0.533C14.658,3.482,14.962,3.418,15.28,3.418z M13.134,6.924
		c0.048,0.186,0.109,0.31,0.183,0.374c0.042,0.042,0.095,0.063,0.159,0.063c0.096,0,0.196-0.059,0.302-0.175
		c0.085-0.096,0.156-0.196,0.215-0.302c0.207-0.366,0.445-0.936,0.715-1.709c0.186-0.524,0.331-0.991,0.438-1.399
		c-0.52,0-0.954,0.201-1.304,0.604c-0.159,0.175-0.294,0.376-0.405,0.604c-0.111,0.228-0.196,0.463-0.254,0.708
		c-0.069,0.302-0.104,0.564-0.104,0.787C13.078,6.659,13.097,6.808,13.134,6.924z M16.632,3.768l0.183-2.75
		c-0.021,0.016-0.061,0.069-0.119,0.159c-0.117,0.175-0.276,0.451-0.477,0.827c-0.212,0.392-0.382,0.739-0.509,1.042
		c-0.064,0.148-0.114,0.292-0.151,0.429c0.223,0.021,0.424,0.053,0.604,0.095C16.322,3.606,16.478,3.673,16.632,3.768z"/>
	<path d="M21.378,4.309l0.135,0.413L21.41,4.929c-0.132,0.27-0.273,0.514-0.421,0.731c-0.207,0.286-0.435,0.458-0.684,0.517
		c-0.053,0.011-0.093,0.016-0.119,0.016c-0.133,0-0.262-0.038-0.39-0.115c-0.127-0.077-0.217-0.176-0.271-0.298
		c-0.084-0.186-0.127-0.397-0.127-0.636c0-0.116,0.008-0.233,0.024-0.35c0.042-0.339,0.063-0.581,0.063-0.724
		c0-0.063-0.005-0.143-0.016-0.238c-0.016-0.111-0.059-0.199-0.127-0.263c-0.069-0.063-0.148-0.095-0.238-0.095
		c-0.101,0-0.2,0.028-0.298,0.083s-0.182,0.131-0.25,0.227c-0.063,0.08-0.104,0.163-0.119,0.25
		c-0.016,0.087-0.027,0.234-0.032,0.441c-0.011,0.445-0.027,0.833-0.048,1.161c-0.005,0.18-0.021,0.307-0.048,0.381
		c-0.016,0.059-0.045,0.102-0.087,0.131s-0.09,0.043-0.143,0.043c-0.053,0-0.097-0.018-0.131-0.056
		c-0.034-0.037-0.054-0.09-0.06-0.159V5.756c0-0.175,0.005-0.416,0.016-0.724c0.005-0.074,0.008-0.151,0.008-0.23l0.032-0.374
		c0.011-0.127,0.016-0.225,0.016-0.294c0-0.196-0.019-0.366-0.056-0.509c-0.032-0.111-0.085-0.191-0.159-0.238
		c0.016-0.032,0.045-0.08,0.087-0.143c0.037-0.042,0.066-0.087,0.087-0.135c0.138,0.021,0.239,0.101,0.302,0.238
		c0.032,0.085,0.053,0.151,0.063,0.199l0.048,0.199c0.074-0.127,0.236-0.281,0.485-0.461c0.302-0.201,0.559-0.302,0.771-0.302
		c0.238,0,0.408,0.12,0.509,0.358c0.037,0.09,0.056,0.215,0.056,0.374c0,0.122-0.013,0.268-0.04,0.438l-0.079,0.477
		c-0.038,0.186-0.056,0.366-0.056,0.541c0,0.101,0.008,0.196,0.023,0.286c0.021,0.08,0.056,0.141,0.104,0.183S20.207,5.7,20.265,5.7
		c0.132,0,0.268-0.095,0.405-0.286c0.048-0.059,0.098-0.138,0.151-0.239c0.101-0.175,0.19-0.312,0.27-0.413
		C21.192,4.629,21.288,4.479,21.378,4.309z"/>
	<path d="M23.024,4.007L23,5.795l1.232-1.486l-0.008,0.644l-1.049,1.249c-0.101,0.106-0.151,0.376-0.151,0.811
		c0,0.185,0.011,0.458,0.032,0.819l0.032,0.461c0.01,0.201,0.016,0.326,0.016,0.374c0,0.165-0.035,0.332-0.104,0.501
		s-0.164,0.329-0.286,0.477c-0.117,0.143-0.249,0.268-0.397,0.374s-0.297,0.18-0.445,0.223c-0.159,0.048-0.302,0.072-0.429,0.072
		c-0.281,0-0.503-0.098-0.668-0.294c-0.127-0.148-0.19-0.35-0.19-0.604c0-0.17,0.032-0.347,0.095-0.533
		c0.143-0.397,0.4-0.835,0.771-1.312c0.244-0.318,0.562-0.694,0.954-1.129c0.021-0.021,0.056-0.054,0.104-0.099
		c0.048-0.045,0.086-0.087,0.115-0.127c0.029-0.04,0.046-0.083,0.052-0.131l0.024-0.691c-0.127,0.159-0.22,0.278-0.278,0.358
		c-0.133,0.164-0.261,0.289-0.386,0.374s-0.274,0.127-0.449,0.127c-0.117,0-0.224-0.021-0.322-0.063
		c-0.098-0.042-0.171-0.104-0.219-0.183c-0.117-0.175-0.175-0.363-0.175-0.564c0-0.106,0.016-0.217,0.047-0.334
		c0.111-0.408,0.345-0.785,0.7-1.129c0.339-0.334,0.692-0.546,1.058-0.636c0.074-0.016,0.14-0.024,0.199-0.024
		c0.09,0,0.172,0.016,0.247,0.048c-0.334,0.085-0.604,0.223-0.811,0.414c-0.063,0.058-0.127,0.125-0.191,0.199
		s-0.135,0.164-0.215,0.27c-0.079,0.106-0.132,0.178-0.159,0.215c-0.138,0.186-0.24,0.349-0.306,0.489
		c-0.066,0.141-0.1,0.269-0.1,0.386c0,0.127,0.042,0.241,0.127,0.342C21.54,5.692,21.609,5.7,21.672,5.7
		c0.223,0,0.419-0.104,0.588-0.31c0.08-0.101,0.146-0.209,0.199-0.326c0.053-0.116,0.125-0.286,0.215-0.509
		c0.074-0.18,0.134-0.312,0.179-0.397C22.898,4.073,22.955,4.022,23.024,4.007z M21.498,9.954c0.037,0.016,0.08,0.024,0.127,0.024
		c0.095,0,0.199-0.031,0.31-0.091c0.111-0.061,0.22-0.145,0.326-0.25c0.138-0.143,0.249-0.306,0.334-0.489
		c0.085-0.183,0.127-0.37,0.127-0.561l-0.056-1.789c-0.186,0.169-0.361,0.363-0.525,0.581c-0.175,0.238-0.342,0.458-0.501,0.66
		c-0.085,0.111-0.167,0.262-0.247,0.453c-0.079,0.191-0.135,0.382-0.167,0.572c-0.021,0.127-0.032,0.226-0.032,0.294
		C21.195,9.665,21.296,9.863,21.498,9.954z"/>
	<path d="M26.721,4.325v0.016l-0.024,0.628c-0.08,0.08-0.156,0.165-0.23,0.254c-0.276,0.334-0.575,0.604-0.898,0.811
		c-0.18,0.117-0.355,0.175-0.525,0.175c-0.244,0-0.469-0.095-0.676-0.286C24.129,5.7,24.01,5.388,24.01,4.985
		c0-0.175,0.033-0.362,0.099-0.561s0.158-0.388,0.274-0.569c0.122-0.19,0.257-0.343,0.405-0.457
		c0.148-0.114,0.297-0.171,0.445-0.171c0.169,0,0.293,0.053,0.37,0.159s0.115,0.241,0.115,0.405c0,0.186-0.042,0.386-0.127,0.6
		c-0.085,0.215-0.18,0.383-0.286,0.505l-0.644,0.708c0.042,0.074,0.094,0.131,0.155,0.171c0.061,0.04,0.126,0.06,0.195,0.06
		c0.18,0,0.405-0.122,0.676-0.366c0.138-0.122,0.347-0.347,0.628-0.676L26.554,4.5C26.617,4.42,26.673,4.362,26.721,4.325z
		 M24.463,5.295c0.005,0.021,0.045,0.008,0.119-0.04c0.132-0.101,0.281-0.281,0.445-0.541c0.148-0.239,0.223-0.472,0.223-0.7
		c0-0.175-0.059-0.321-0.175-0.437c-0.106,0.058-0.205,0.166-0.298,0.322s-0.171,0.333-0.235,0.529
		c-0.079,0.238-0.119,0.456-0.119,0.652C24.423,5.17,24.436,5.242,24.463,5.295z"/>
	<path d="M28.931,4.309l0.008,0.644c-0.117,0.191-0.193,0.324-0.23,0.398c-0.191,0.35-0.398,0.609-0.62,0.779
		c-0.117,0.096-0.254,0.143-0.414,0.143c-0.318,0-0.564-0.156-0.739-0.469c-0.143-0.233-0.247-0.573-0.31-1.018
		c-0.042-0.286-0.064-0.625-0.064-1.018V3.244c0-0.536,0.032-1.047,0.096-1.535c0.069-0.593,0.199-1.039,0.39-1.335
		c0.063-0.096,0.148-0.168,0.254-0.219c0.106-0.05,0.217-0.076,0.333-0.076c0.144,0,0.268,0.037,0.374,0.111
		c0.211,0.154,0.318,0.424,0.318,0.811c0,0.059-0.005,0.151-0.017,0.278c-0.058,0.525-0.195,1.076-0.413,1.654
		c-0.212,0.567-0.421,1.044-0.628,1.431c-0.09,0.165-0.169,0.289-0.238,0.374c-0.021,0.021-0.032,0.047-0.032,0.08
		c0,0.032,0.008,0.063,0.024,0.095l0.08,0.254c0.106,0.26,0.217,0.432,0.333,0.517c0.096,0.08,0.188,0.12,0.278,0.12
		c0.122,0,0.249-0.066,0.382-0.199c0.169-0.17,0.366-0.454,0.589-0.851L28.828,4.5L28.931,4.309z M27.5,0.62
		c-0.096,0.01-0.175,0.087-0.239,0.23c-0.132,0.297-0.22,0.745-0.262,1.343c-0.042,0.573-0.059,1.087-0.048,1.542
		c0,0.254,0.003,0.416,0.008,0.485c0.059-0.079,0.135-0.225,0.231-0.437c0.095-0.212,0.19-0.451,0.286-0.716
		c0.27-0.779,0.405-1.394,0.405-1.844C27.881,0.816,27.754,0.615,27.5,0.62z"/>
	<path d="M30.544,0.421c-0.138,0.021-0.249,0.104-0.334,0.247c-0.042,0.063-0.074,0.114-0.095,0.151
		c-0.017,0.032-0.04,0.06-0.072,0.083c-0.031,0.023-0.066,0.036-0.104,0.036s-0.071-0.019-0.103-0.056
		c-0.032-0.032-0.048-0.066-0.048-0.104c0-0.069,0.048-0.146,0.143-0.23c0.138-0.127,0.303-0.225,0.493-0.294
		c0.08-0.027,0.151-0.04,0.215-0.04c0.159,0,0.272,0.072,0.342,0.215c0.122,0.233,0.19,0.541,0.207,0.922
		c0.005,0.117,0.008,0.263,0.008,0.438l-0.056,3.88c0.116,0.09,0.234,0.207,0.354,0.35s0.256,0.321,0.409,0.533l0.366,0.525
		c0.271,0.387,0.514,0.649,0.731,0.787c0.09,0.063,0.196,0.095,0.317,0.095c0.139,0,0.276-0.042,0.414-0.127l0.294-0.191
		c0.111-0.074,0.199-0.111,0.263-0.111c0.068,0,0.13,0.037,0.183,0.111c0.032,0.032,0.048,0.077,0.048,0.135
		c0,0.132-0.062,0.268-0.183,0.405c-0.106,0.122-0.235,0.223-0.386,0.302c-0.151,0.08-0.31,0.119-0.474,0.119
		c-0.153,0-0.312-0.044-0.473-0.131c-0.162-0.087-0.319-0.224-0.473-0.409l-0.295-0.39c-0.376-0.488-0.665-0.837-0.866-1.049
		c-0.144-0.143-0.249-0.223-0.318-0.239c-0.101,0.334-0.243,0.641-0.429,0.922c-0.139,0.196-0.286,0.353-0.445,0.469
		C30.02,7.892,29.858,7.95,29.694,7.95c-0.212,0-0.421-0.104-0.628-0.31c-0.111-0.101-0.167-0.228-0.167-0.382
		c0-0.117,0.034-0.249,0.104-0.397c0.063-0.138,0.156-0.278,0.278-0.421s0.26-0.275,0.413-0.397c0.148-0.122,0.3-0.219,0.453-0.29
		c0.154-0.072,0.294-0.11,0.422-0.115c0.053-0.424,0.098-0.978,0.135-1.662c0.037-0.652,0.056-1.227,0.056-1.726l-0.008-0.445
		C30.736,1.062,30.667,0.602,30.544,0.421z M30.544,5.979c-0.153-0.005-0.304,0.035-0.449,0.119
		c-0.146,0.085-0.266,0.196-0.361,0.334c-0.122,0.164-0.183,0.339-0.183,0.525c0,0.132,0.036,0.259,0.111,0.381
		c0.047,0.074,0.105,0.111,0.175,0.111c0.132,0,0.268-0.074,0.405-0.223c0.048-0.048,0.087-0.098,0.119-0.151
		c0.127-0.26,0.19-0.57,0.19-0.93L30.544,5.979z"/>
	<path d="M34.059,6.193c-0.17,0-0.271-0.074-0.302-0.222c-0.027-0.101-0.046-0.31-0.056-0.628c-0.117,0.096-0.207,0.18-0.271,0.254
		c-0.229,0.233-0.464,0.406-0.708,0.517c-0.132,0.058-0.272,0.087-0.421,0.087c-0.212,0-0.376-0.056-0.493-0.167
		c-0.164-0.148-0.246-0.355-0.246-0.62c0-0.387,0.214-0.785,0.644-1.193c0.345-0.333,0.736-0.606,1.177-0.819
		c0.334-0.159,0.606-0.238,0.819-0.238c0.084,0,0.15,0.011,0.198,0.032c0.111,0.048,0.167,0.122,0.167,0.223
		c-0.085-0.026-0.167-0.04-0.246-0.04c-0.054,0-0.122,0.011-0.207,0.032c-0.196,0.047-0.403,0.128-0.62,0.242
		c-0.218,0.114-0.416,0.245-0.597,0.394C32.48,4.391,32.27,4.751,32.27,5.128c0,0.164,0.03,0.285,0.092,0.361
		c0.061,0.077,0.142,0.116,0.242,0.116c0.159,0,0.331-0.064,0.517-0.191c0.196-0.127,0.353-0.268,0.47-0.421
		c0.079-0.106,0.161-0.22,0.246-0.342c0.186-0.26,0.337-0.424,0.453-0.493c0.037-0.021,0.08-0.032,0.127-0.032
		c0.043,0,0.074,0.005,0.096,0.016c0,0.037-0.021,0.103-0.063,0.199c-0.133,0.265-0.23,0.487-0.294,0.667
		c-0.032,0.085-0.048,0.183-0.048,0.294c0,0.132,0.021,0.214,0.063,0.247c0.021,0.021,0.056,0.032,0.104,0.032
		c0.058,0,0.122-0.026,0.19-0.08c0.106-0.085,0.212-0.209,0.318-0.374l0.104-0.151l0.461-0.684l0.023,0.596
		c-0.143,0.233-0.264,0.423-0.361,0.568c-0.099,0.146-0.195,0.269-0.29,0.37C34.491,6.071,34.271,6.193,34.059,6.193z"/>
	<path d="M39.107,4.134L38.876,5c-0.127,0.111-0.247,0.204-0.358,0.278c-0.302,0.217-0.517,0.403-0.644,0.557
		c-0.079,0.09-0.133,0.188-0.159,0.294C37.7,6.272,37.692,6.41,37.692,6.543c0,0.132,0.019,0.39,0.056,0.771l0.023,0.207
		c0.037,0.307,0.056,0.562,0.056,0.763c0,0.18-0.013,0.334-0.04,0.461c-0.079,0.429-0.307,0.819-0.684,1.169
		c-0.186,0.18-0.384,0.314-0.596,0.401s-0.425,0.131-0.637,0.131c-0.238,0-0.455-0.053-0.651-0.159s-0.345-0.254-0.445-0.445
		c-0.09-0.154-0.135-0.329-0.135-0.525c0-0.26,0.082-0.527,0.246-0.803c0.159-0.281,0.35-0.546,0.572-0.795
		c0.085-0.106,0.181-0.209,0.286-0.31c0.371-0.387,0.642-0.689,0.812-0.907c0.243-0.307,0.397-0.585,0.461-0.834
		c0.031-0.117,0.052-0.245,0.06-0.386c0.008-0.14,0.012-0.316,0.012-0.529c0-0.27,0.003-0.49,0.008-0.66
		c-0.037,0.132-0.094,0.278-0.171,0.437c-0.077,0.159-0.166,0.31-0.267,0.454c-0.105,0.153-0.214,0.287-0.325,0.401
		c-0.111,0.114-0.215,0.192-0.311,0.234c-0.159,0.069-0.297,0.104-0.413,0.104c-0.323,0-0.485-0.241-0.485-0.724
		c0-0.275,0.066-0.684,0.199-1.224c0.095-0.382,0.215-0.761,0.357-1.137c0.138,0.09,0.24,0.182,0.306,0.274
		c0.066,0.093,0.1,0.2,0.1,0.322c0,0.064-0.008,0.135-0.023,0.215c-0.048,0.175-0.099,0.334-0.151,0.477
		c-0.085,0.233-0.151,0.436-0.198,0.608C35.665,4.708,35.64,4.863,35.64,5c0,0.095,0.021,0.178,0.063,0.247
		c0.064,0.048,0.128,0.071,0.191,0.071c0.096,0,0.198-0.047,0.31-0.143c0.128-0.116,0.276-0.318,0.445-0.604
		c0.08-0.143,0.173-0.326,0.278-0.549c0.175-0.339,0.3-0.779,0.374-1.32c0.159,0.053,0.289,0.188,0.39,0.406
		c0.074,0.159,0.111,0.321,0.111,0.485c0,0.042-0.003,0.074-0.008,0.096c0,0.016-0.014,0.212-0.04,0.588
		c0,0.122-0.003,0.212-0.008,0.271l-0.024,0.485l-0.016,0.35c0.042-0.059,0.119-0.137,0.23-0.235c0.111-0.098,0.23-0.2,0.358-0.306
		l0.405-0.35C38.844,4.375,38.98,4.256,39.107,4.134z M37.072,6.289c-0.026,0.01-0.066,0.05-0.119,0.119
		c-0.122,0.143-0.273,0.339-0.453,0.588l-0.255,0.342c-0.196,0.265-0.308,0.418-0.334,0.461c-0.085,0.127-0.166,0.273-0.242,0.438
		C35.591,8.4,35.532,8.565,35.49,8.729c-0.032,0.127-0.048,0.255-0.048,0.382c0,0.254,0.074,0.472,0.223,0.652
		c0.111,0.138,0.241,0.207,0.39,0.207c0.063,0,0.13-0.014,0.198-0.04c0.181-0.074,0.355-0.233,0.525-0.477
		c0.073-0.106,0.136-0.214,0.187-0.326c0.05-0.111,0.083-0.209,0.1-0.294c0.042-0.249,0.063-0.596,0.063-1.042
		C37.127,7.42,37.109,6.919,37.072,6.289z"/>
	<path d="M41.413,4.325v0.016l-0.024,0.628c-0.079,0.08-0.156,0.165-0.23,0.254c-0.275,0.334-0.575,0.604-0.898,0.811
		c-0.18,0.117-0.354,0.175-0.524,0.175c-0.244,0-0.469-0.095-0.676-0.286c-0.238-0.223-0.357-0.535-0.357-0.938
		c0-0.175,0.033-0.362,0.1-0.561c0.065-0.199,0.157-0.388,0.273-0.569c0.122-0.19,0.258-0.343,0.406-0.457
		c0.147-0.114,0.296-0.171,0.444-0.171c0.17,0,0.293,0.053,0.37,0.159s0.115,0.241,0.115,0.405c0,0.186-0.042,0.386-0.127,0.6
		c-0.085,0.215-0.181,0.383-0.286,0.505l-0.645,0.708c0.043,0.074,0.095,0.131,0.155,0.171c0.061,0.04,0.126,0.06,0.195,0.06
		c0.18,0,0.405-0.122,0.676-0.366c0.138-0.122,0.347-0.347,0.628-0.676L41.246,4.5C41.309,4.42,41.365,4.362,41.413,4.325z
		 M39.155,5.295c0.005,0.021,0.045,0.008,0.119-0.04c0.133-0.101,0.281-0.281,0.445-0.541c0.148-0.239,0.223-0.472,0.223-0.7
		c0-0.175-0.059-0.321-0.175-0.437c-0.106,0.058-0.206,0.166-0.299,0.322s-0.171,0.333-0.234,0.529
		c-0.079,0.238-0.119,0.456-0.119,0.652C39.115,5.17,39.128,5.242,39.155,5.295z"/>
	<path d="M42.232,5.732c0.073-0.058,0.232-0.225,0.477-0.501c0.122-0.143,0.3-0.36,0.532-0.652c0.186-0.223,0.3-0.355,0.343-0.397
		l-0.12,0.779c-0.105,0.111-0.217,0.238-0.334,0.381c-0.243,0.313-0.509,0.557-0.795,0.731c-0.153,0.09-0.307,0.135-0.461,0.135
		c-0.111,0-0.193-0.037-0.246-0.111c-0.054-0.074-0.08-0.169-0.08-0.286c0-0.164,0.069-0.403,0.207-0.716
		c0.133-0.291,0.265-0.53,0.397-0.715c0.08-0.111,0.13-0.18,0.151-0.207c0.063-0.085,0.105-0.151,0.127-0.199l-0.167-0.016
		l-0.159-0.024c-0.105,0.127-0.23,0.308-0.373,0.541c-0.106,0.175-0.223,0.342-0.351,0.501V4.341
		c0.043-0.059,0.117-0.154,0.223-0.287l0.111-0.135c0.021-0.021,0.063-0.074,0.128-0.159c-0.08-0.074-0.12-0.209-0.12-0.405
		c0-0.111,0.006-0.199,0.017-0.263c0.011-0.095,0.035-0.183,0.075-0.262s0.089-0.143,0.147-0.191c0.068-0.053,0.138-0.08,0.206-0.08
		c0.08,0,0.156,0.029,0.23,0.088c0.064,0.042,0.114,0.097,0.151,0.163c0.037,0.066,0.056,0.139,0.056,0.219
		c0,0.032-0.003,0.056-0.008,0.072c-0.016,0.143-0.082,0.299-0.199,0.469c0.027,0.005,0.069,0.008,0.128,0.008h0.127h0.056
		c0.068,0,0.137,0.028,0.203,0.083c0.065,0.055,0.086,0.107,0.06,0.155c-0.085,0.186-0.199,0.4-0.342,0.644
		c-0.159,0.275-0.306,0.538-0.438,0.787c-0.048,0.085-0.101,0.188-0.159,0.31c-0.043,0.095-0.063,0.154-0.063,0.175
		c0,0.08,0.021,0.119,0.063,0.119C42.07,5.851,42.136,5.812,42.232,5.732z M42.271,3.053c0.006-0.048-0.016-0.093-0.063-0.135
		l-0.031-0.016H42.16c-0.026,0.01-0.05,0.047-0.071,0.111c-0.021,0.063-0.032,0.132-0.032,0.207c0,0.085,0.017,0.151,0.048,0.199
		C42.189,3.286,42.245,3.164,42.271,3.053z"/>
</g>
<g>
	<path fill="#010101" d="M9.695,5.255c0.364,0.469,0.616,1.176,0.406,1.755c-0.129,0.356-0.566,0.4-0.85,0.226
		c0.006,0.201-0.249,0.325-0.463,0.295C8.544,7.498,8.182,7.355,8.044,7.116c0,0.002,0,0.005-0.001,0.007
		C8.035,7.161,8.025,7.2,8.003,7.232C7.985,7.258,7.954,7.285,7.919,7.301c0.254,0.25,0.514,0.498,0.772,0.744
		C8.716,8.07,8.717,8.108,8.702,8.139C8.525,8.498,8.236,8.805,7.89,9.045c0.075,0.059,0.107,0.184,0.09,0.271
		C7.962,9.414,7.896,9.499,7.81,9.548c-0.185,0.104-0.463,0.057-0.513-0.18C7.166,9.423,7.032,9.468,6.896,9.505
		c0.165,0.198,0.006,0.469-0.234,0.503c-0.239,0.032-0.516-0.122-0.463-0.396c-0.313,0.009-0.62-0.031-0.9-0.135
		C4.789,9.292,4.8,8.745,4.768,8.287C4.73,7.687,4.761,7.12,4.863,6.558C4.609,6.827,4.475,7.21,4.47,7.577
		c-0.002,0.19,0.143,0.48,0.066,0.662C4.484,8.36,4.381,8.371,4.31,8.337C4.287,8.51,4.182,8.673,3.984,8.633
		C3.819,8.601,3.75,8.457,3.769,8.315C3.607,7.322,4.273,5.96,5.133,5.499c0-0.002,0.001-0.004,0.001-0.005
		c-0.705,0.027-1.476-0.1-1.953-0.636C2.776,4.401,2.506,3.785,2.562,3.161c0.127-1.368,1.491-2.566,2.88-2.538
		C6.752,0.65,8.174,1.608,8.03,3.061C7.997,3.409,7.906,3.761,7.758,4.083C8.371,3.827,9.379,4.851,9.695,5.255 M9.165,7.063
		c0.548,0.423,1.009-0.179,0.875-0.73C9.983,6.102,9.91,5.875,9.793,5.667C9.655,5.423,9.487,5.21,9.289,5.011
		c-0.408-0.413-1.095-1.055-1.651-0.7C7.521,4.507,7.382,4.688,7.21,4.84C7.169,4.876,7.13,4.91,7.091,4.941
		c0.06,0.054,0.087,0.155,0.067,0.227C7.139,5.24,7.088,5.299,7.029,5.345C7.51,5.362,7.979,5.543,8.388,5.794
		c0.265,0.164,0.688,0.417,0.737,0.763C9.181,6.965,8.783,7.083,8.513,6.89C8.5,7.024,8.36,7.09,8.205,6.949
		C7.981,6.747,7.941,6.427,7.714,6.218C7.41,5.939,7.066,5.745,6.65,5.727C6.843,6.21,7.278,6.649,7.61,6.993
		C7.678,7.064,7.75,7.131,7.82,7.202c0.021-0.01,0.042-0.007,0.064-0.019c0.019-0.011,0.037-0.031,0.05-0.051
		C7.949,7.112,7.96,7.09,7.973,7.068c0.008-0.013,0.024-0.026,0.033-0.041C8.005,7.025,8.005,7.023,8.003,7.021
		c-0.01-0.036,0.037-0.063,0.063-0.036c0.143,0.146,0.282,0.279,0.48,0.351c0.169,0.061,0.662,0.151,0.605-0.179
		C9.14,7.148,9.129,7.137,9.118,7.125C9.09,7.093,9.127,7.034,9.165,7.063 M8.944,6.854c0.118-0.162,0.118-0.318-0.002-0.465
		c-0.163-0.213-0.377-0.37-0.61-0.496C7.906,5.661,7.456,5.476,6.981,5.383C6.979,5.382,6.977,5.381,6.976,5.379
		c-0.012,0.008-0.025,0.017-0.04,0.021C6.817,5.453,6.665,5.461,6.563,5.405c0.01,0.071,0.027,0.14,0.047,0.208h0.001
		C6.979,5.621,7.328,5.754,7.61,5.989c0.139,0.115,0.304,0.243,0.389,0.408c0.045,0.088,0.085,0.182,0.133,0.27
		c0.037,0.122,0.126,0.159,0.267,0.113c-0.001,0-0.001-0.001-0.002-0.001C8.368,6.739,8.426,6.7,8.459,6.728
		C8.462,6.73,8.464,6.734,8.467,6.735c0.006,0,0.014,0.002,0.018,0.01c0,0.002,0.001,0.004,0.001,0.006
		C8.603,6.847,8.797,6.966,8.944,6.854 M7.404,9.132c0.238-0.13,1.379-0.786,1.022-1.124C8.062,7.662,7.682,7.323,7.351,6.944
		C6.945,6.482,6.423,5.959,6.398,5.312c-0.351,0.118-0.721,0.161-1.14,0.215C5.026,6.562,4.834,7.504,4.936,8.581
		C5.049,9.79,6.623,9.558,7.404,9.132 M7.862,9.283C7.863,9.211,7.82,9.167,7.797,9.106c-0.141,0.09-0.289,0.17-0.444,0.237
		c0.049,0.07,0.101,0.137,0.191,0.151c0.071,0.011,0.149-0.008,0.208-0.046C7.806,9.412,7.859,9.353,7.862,9.283 M7.529,4.1
		c0.208-0.37,0.333-0.787,0.31-1.213C7.772,1.645,6.529,0.67,5.286,0.811C4.625,0.886,3.913,1.216,3.409,1.716v0.001
		C3.406,1.718,3.405,1.719,3.404,1.721c-0.02,0.022-0.04,0.045-0.061,0.067c0.208,0.348,1.023,0.408,1.359,0.408
		c0.668,0,1.242-0.152,1.774-0.562c0.042-0.032,0.096,0.014,0.099,0.057C6.612,2.508,6.644,3.736,7.529,4.1 M7.076,4.706
		c0.142-0.147,0.272-0.312,0.384-0.49C6.944,4.022,6.688,3.522,6.581,3C6.519,2.697,6.479,2.39,6.463,2.082
		C6.457,1.95,6.526,1.78,6.382,1.873C6.216,1.981,6.053,2.068,5.87,2.147C5.513,2.3,3.479,2.54,3.266,1.872
		C2.919,2.274,2.707,2.769,2.739,3.323c0.037,0.651,0.328,1.368,0.934,1.694c0.566,0.305,1.17,0.258,1.779,0.334
		C6.043,5.255,6.63,5.167,7.076,4.706 M7.022,5.143c0.015-0.053-0.015-0.084-0.043-0.119C6.844,5.118,6.708,5.192,6.567,5.25
		c0.074,0.087,0.201,0.087,0.314,0.027C6.934,5.249,7.005,5.206,7.022,5.143 M6.827,9.774c0.042-0.081,0.009-0.165-0.013-0.248
		C6.635,9.57,6.456,9.598,6.276,9.609c0.02,0.096,0.036,0.188,0.128,0.243C6.47,9.892,6.553,9.91,6.63,9.895
		C6.705,9.88,6.789,9.846,6.827,9.774 M4.895,6.396c0.053-0.264,0.12-0.527,0.206-0.792c-0.777,0.842-1.235,1.64-1.25,2.821
		c0.023,0.064,0.07,0.117,0.154,0.123c0.221,0.017,0.217-0.264,0.226-0.413c0.002-0.039,0.057-0.048,0.068-0.009
		c0.007,0.024,0.012,0.051,0.015,0.08C4.526,8.26,4.4,7.923,4.378,7.818C4.35,7.674,4.357,7.524,4.382,7.38
		C4.444,7.024,4.573,6.603,4.895,6.396"/>
	<path fill="#010101" d="M9.077,0.736c0.257,0.301,0.911,1.09,0.518,1.5C9.062,2.791,8.386,1.94,8.105,1.507
		C8.018,1.371,7.588,0.721,7.754,0.49C7.78,0.424,7.825,0.368,7.878,0.323c0.077-0.064,0.165-0.117,0.266-0.136
		c0.044-0.007,0.117-0.01,0.166,0.015C8.596,0.255,8.902,0.535,9.077,0.736 M9.11,2.227c0.444,0.064,0.449-0.279,0.381-0.496
		C9.343,1.267,8.464-0.094,7.938,0.535C7.917,0.556,7.894,0.56,7.871,0.554C7.857,0.588,7.853,0.633,7.858,0.679
		c0.001,0.004,0.001,0.008,0.001,0.012C7.896,0.973,8.23,1.402,8.328,1.537C8.415,1.66,8.503,1.785,8.611,1.892
		C8.747,2.023,8.913,2.2,9.11,2.227"/>
	<path fill="#FFE531" d="M7.839,2.886C7.862,3.313,7.736,3.73,7.529,4.1C6.644,3.736,6.612,2.508,6.576,1.691
		C6.573,1.647,6.519,1.602,6.477,1.634c-0.533,0.41-1.106,0.562-1.774,0.562c-0.336,0-1.151-0.061-1.359-0.408
		c0.021-0.021,0.04-0.045,0.061-0.067c0.001-0.001,0.002-0.002,0.005-0.004V1.716c0.504-0.5,1.217-0.83,1.877-0.905
		C6.529,0.67,7.772,1.645,7.839,2.886"/>
	<path fill="#010101" d="M4.473,3.826c0.102,0.124,0.132,0.367-0.027,0.46c-0.039,0.022-0.091-0.014-0.078-0.06
		c0.021-0.064,0.07-0.118,0.062-0.188C4.425,3.976,4.395,3.914,4.353,3.869C4.261,3.768,4.132,3.694,3.993,3.69
		c-0.03,0-0.039-0.048-0.006-0.055C4.173,3.601,4.353,3.681,4.473,3.826"/>
	<path fill="#010101" d="M4.093,2.86c0.024,0.072,0.014,0.192-0.056,0.235C4.01,3.111,3.966,3.097,3.961,3.065
		c-0.013-0.07,0.067-0.194-0.049-0.211C3.829,2.841,3.776,2.905,3.776,2.982c0,0.041-0.064,0.053-0.073,0.01
		C3.671,2.843,3.787,2.706,3.944,2.735C4.011,2.748,4.071,2.794,4.093,2.86"/>
	<path fill="#010101" d="M3.729,3.918c0.05,0.093,0.043,0.174,0.005,0.272C3.718,4.229,3.678,4.251,3.638,4.229
		C3.58,4.196,3.533,4.149,3.521,4.082c-0.01-0.068,0.027-0.128,0.067-0.177c0.015-0.019,0.033-0.019,0.048-0.009
		c0,0,0-0.001,0.001-0.001C3.667,3.877,3.71,3.886,3.729,3.918"/>
	<path fill="#010101" d="M3.271,2.721C3.423,2.734,3.503,2.92,3.408,3.043C3.387,3.071,3.344,3.046,3.344,3.017
		c-0.001-0.05,0.03-0.108-0.002-0.156C3.324,2.834,3.294,2.823,3.263,2.827c-0.09,0.011-0.106,0.108-0.088,0.181
		c0.009,0.035-0.043,0.06-0.06,0.026c-0.033-0.067-0.057-0.162-0.01-0.229C3.143,2.751,3.204,2.715,3.271,2.721"/>
	<path fill="#010101" d="M2.573,4.971c0.025,0.035,0.006,0.074-0.026,0.092C2.528,5.132,2.485,5.21,2.405,5.191
		c-0.066-0.017-0.102-0.089-0.117-0.15c-0.015-0.069-0.021-0.15,0.044-0.193c0.005-0.002,0.01-0.004,0.014-0.006
		C2.325,4.788,2.306,4.734,2.29,4.678C2.196,4.775,2.036,4.826,1.905,4.835c0.062,0.129,0.13,0.252,0.231,0.362
		C2.17,5.233,2.151,5.286,2.114,5.304C2.077,5.457,1.799,5.465,1.765,5.273c-0.02-0.119,0.068-0.152,0.167-0.146
		C1.856,4.998,1.797,4.856,1.763,4.71c-0.001-0.01,0-0.021,0.005-0.029c0-0.01,0.004-0.022,0.016-0.028
		C1.949,4.555,2.106,4.464,2.246,4.33C2.28,4.298,2.35,4.307,2.358,4.358C2.395,4.578,2.448,4.786,2.573,4.971"/>
	<path fill="#010101" d="M1.99,3.324c0.025,0.113-0.03,0.242-0.156,0.251C1.773,3.579,1.713,3.557,1.67,3.518
		c0.006,0.116,0.018,0.233,0.039,0.349c0.003,0.019-0.001,0.038-0.01,0.05c-0.004,0.088-0.06,0.198-0.162,0.177
		C1.459,4.08,1.406,3.999,1.377,3.932C1.352,3.873,1.325,3.76,1.402,3.723c0.055-0.026,0.11-0.01,0.164,0.019
		C1.547,3.592,1.538,3.441,1.53,3.288C1.529,3.247,1.574,3.213,1.614,3.225c0.115,0.036,0.213,0.041,0.331,0.014
		C1.979,3.23,2,3.27,1.977,3.296C1.976,3.297,1.975,3.297,1.974,3.298C1.981,3.305,1.987,3.313,1.99,3.324"/>
	<path fill="#010101" d="M1.747,1.568C1.765,1.58,1.78,1.601,1.778,1.623C1.774,1.685,1.76,1.749,1.734,1.806
		C1.724,1.83,1.689,1.843,1.666,1.834c-0.064-0.024-0.137-0.036-0.2-0.067C1.455,1.9,1.425,2.035,1.415,2.166
		C1.413,2.197,1.388,2.218,1.362,2.222C1.273,2.345,1.06,2.369,1.013,2.187C0.961,1.986,1.176,1.965,1.314,2.044
		c0.003,0,0.006-0.001,0.008-0.003c0.024-0.126,0.054-0.252,0.079-0.38c0-0.001-0.002-0.002-0.002-0.005
		c0-0.057,0.011-0.102,0.042-0.151c0.014-0.023,0.043-0.038,0.072-0.03C1.591,1.5,1.676,1.524,1.747,1.568"/>
	<path fill="#010101" d="M1.429,0.667c0.013,0.019,0.015,0.039,0.008,0.056C1.44,0.729,1.441,0.732,1.441,0.738
		C1.44,0.819,1.419,0.988,1.308,0.99C1.232,0.993,1.181,0.919,1.153,0.857c-0.03-0.064-0.05-0.163,0.002-0.22
		c0.031-0.033,0.071-0.041,0.111-0.037C1.234,0.54,1.212,0.475,1.194,0.407C1.125,0.451,1.062,0.501,1.002,0.556
		C0.95,0.608,0.893,0.664,0.829,0.701C0.85,0.737,0.874,0.771,0.902,0.803C0.959,0.869,1.02,0.93,1.078,0.993
		c0.011,0.012,0.02,0.022,0.028,0.031c0.022,0.024,0.015,0.054-0.001,0.073c0.003,0.005,0.006,0.009,0.008,0.015
		C1.114,1.14,1.109,1.189,1.092,1.234c0.001,0.011-0.004,0.021-0.013,0.031c-0.022,0.042-0.056,0.07-0.103,0.053
		C0.969,1.317,0.965,1.312,0.96,1.31c-0.061,0-0.121-0.029-0.149-0.087C0.777,1.152,0.784,1.08,0.819,1.016
		c-0.001-0.04,0.008-0.077,0.037-0.103c0-0.001,0.002-0.001,0.002-0.002C0.833,0.879,0.809,0.849,0.79,0.815
		C0.76,0.766,0.708,0.688,0.725,0.626c-0.018-0.004-0.03-0.024-0.014-0.042c0.138-0.155,0.299-0.293,0.46-0.424
		C1.206,0.131,1.25,0.15,1.255,0.194C1.274,0.365,1.318,0.532,1.429,0.667"/>
	<path fill="#010101" d="M0.725,3.311c0.004,0.014,0,0.025-0.007,0.036C0.73,3.364,0.733,3.389,0.715,3.41
		C0.656,3.475,0.564,3.559,0.47,3.514c-0.064-0.031-0.095-0.111-0.093-0.18c0.002-0.063,0.03-0.149,0.101-0.167
		c0.045-0.01,0.086,0.001,0.123,0.022c-0.013-0.084-0.018-0.17-0.019-0.256c-0.044,0.058-0.105,0.11-0.159,0.141
		C0.335,3.125,0.231,3.15,0.129,3.147C0.164,3.234,0.201,3.318,0.25,3.4C0.271,3.426,0.286,3.458,0.3,3.483
		c0.011,0.023,0.005,0.045-0.01,0.061v0.004C0.26,3.617,0.145,3.672,0.074,3.631C0.014,3.596-0.005,3.526,0,3.46
		c0.004-0.057,0.035-0.123,0.094-0.139C0.056,3.234,0.031,3.144,0.03,3.05C0.021,3.04,0.021,3.026,0.029,3.016V3.013H0.025
		C-0.013,3.008,0,2.954,0.032,2.952c0.213-0.017,0.411-0.147,0.565-0.289c0.027-0.026,0.074-0.01,0.074,0.031
		C0.672,2.902,0.663,3.108,0.725,3.311"/>
</g>
</svg>
