<?xml version="1.0" encoding="utf-8"?>
<!-- Generator: Adobe Illustrator 15.0.0, SVG Export Plug-In . SVG Version: 6.00 Build 0)  -->
<!DOCTYPE svg PUBLIC "-//W3C//DTD SVG 1.1//EN" "http://www.w3.org/Graphics/SVG/1.1/DTD/svg11.dtd">
<svg version="1.1" id="Layer_1" xmlns="http://www.w3.org/2000/svg" xmlns:xlink="http://www.w3.org/1999/xlink" x="0px" y="0px"
	 width="39.141px" height="8.375px" viewBox="0 0 39.141 8.375" enable-background="new 0 0 39.141 8.375" xml:space="preserve">
<g>
	<path fill="#231F20" d="M11.389,4.166c-0.048-0.093-0.112-0.17-0.193-0.232c-0.081-0.061-0.174-0.106-0.278-0.134
		c-0.106-0.028-0.217-0.042-0.335-0.042c-0.092,0-0.184,0.01-0.278,0.029c-0.093,0.02-0.18,0.052-0.259,0.098
		c-0.078,0.047-0.142,0.106-0.19,0.181C9.806,4.14,9.783,4.231,9.783,4.34c0,0.092,0.022,0.169,0.069,0.232
		c0.046,0.064,0.103,0.117,0.173,0.161s0.146,0.08,0.23,0.108c0.083,0.028,0.16,0.052,0.229,0.068l0.551,0.125
		c0.118,0.018,0.235,0.049,0.35,0.096c0.117,0.045,0.219,0.106,0.309,0.181c0.089,0.072,0.163,0.165,0.22,0.274
		c0.056,0.108,0.085,0.237,0.085,0.387c0,0.184-0.041,0.34-0.125,0.469c-0.083,0.13-0.188,0.234-0.317,0.314
		c-0.129,0.082-0.274,0.139-0.437,0.175c-0.162,0.035-0.321,0.051-0.479,0.051c-0.397,0-0.719-0.093-0.966-0.281
		C9.427,6.513,9.286,6.212,9.252,5.796h0.412c0.018,0.279,0.12,0.49,0.305,0.633c0.186,0.143,0.417,0.213,0.692,0.213
		c0.101,0,0.205-0.011,0.311-0.032c0.107-0.021,0.207-0.061,0.299-0.112c0.092-0.053,0.167-0.119,0.227-0.198
		c0.059-0.082,0.088-0.181,0.088-0.3c0-0.101-0.02-0.186-0.062-0.253s-0.098-0.124-0.167-0.17c-0.07-0.046-0.15-0.084-0.24-0.114
		c-0.09-0.03-0.181-0.058-0.272-0.08l-0.531-0.117c-0.135-0.035-0.26-0.076-0.374-0.121c-0.114-0.046-0.213-0.103-0.298-0.17
		c-0.086-0.068-0.153-0.152-0.201-0.25C9.393,4.625,9.37,4.503,9.37,4.36c0-0.171,0.037-0.318,0.114-0.44
		c0.077-0.122,0.176-0.219,0.298-0.294c0.122-0.074,0.258-0.128,0.41-0.165c0.15-0.035,0.3-0.052,0.448-0.052
		c0.17,0,0.329,0.022,0.476,0.067c0.146,0.042,0.275,0.11,0.387,0.202c0.111,0.093,0.2,0.206,0.266,0.342
		c0.065,0.135,0.102,0.294,0.111,0.478h-0.414C11.463,4.37,11.437,4.26,11.389,4.166z"/>
	<path fill="#231F20" d="M13.062,1.827V4.09h0.014c0.078-0.204,0.218-0.371,0.419-0.495c0.2-0.125,0.421-0.187,0.662-0.187
		c0.236,0,0.433,0.031,0.593,0.092c0.159,0.061,0.288,0.147,0.383,0.259c0.096,0.112,0.164,0.248,0.204,0.41
		c0.04,0.161,0.059,0.343,0.059,0.544v2.177h-0.413V4.779c0-0.144-0.013-0.279-0.04-0.402c-0.027-0.125-0.072-0.234-0.137-0.326
		c-0.066-0.092-0.154-0.163-0.266-0.216c-0.111-0.053-0.251-0.079-0.416-0.079c-0.167,0-0.314,0.029-0.443,0.088
		c-0.129,0.06-0.238,0.14-0.329,0.242c-0.089,0.102-0.159,0.226-0.209,0.367c-0.05,0.143-0.078,0.295-0.082,0.462v1.974h-0.413
		V1.827H13.062z"/>
	<path fill="#231F20" d="M16.304,4.032c0.07-0.143,0.165-0.262,0.285-0.354c0.121-0.091,0.262-0.16,0.424-0.202
		c0.161-0.045,0.341-0.067,0.537-0.067c0.149,0,0.297,0.014,0.446,0.042c0.149,0.028,0.281,0.083,0.4,0.161
		c0.118,0.079,0.214,0.189,0.288,0.331c0.074,0.142,0.111,0.327,0.111,0.554v1.796c0,0.167,0.081,0.249,0.243,0.249
		c0.048,0,0.092-0.007,0.131-0.025v0.348c-0.048,0.009-0.091,0.016-0.128,0.02c-0.037,0.005-0.084,0.007-0.141,0.007
		c-0.105,0-0.189-0.014-0.253-0.042C18.585,6.819,18.535,6.78,18.5,6.727c-0.035-0.052-0.058-0.114-0.069-0.187
		c-0.011-0.073-0.016-0.151-0.016-0.239h-0.014c-0.073,0.109-0.149,0.206-0.226,0.292c-0.077,0.085-0.163,0.157-0.257,0.213
		c-0.094,0.057-0.2,0.1-0.321,0.131c-0.12,0.031-0.263,0.045-0.429,0.045c-0.157,0-0.305-0.018-0.442-0.055
		c-0.138-0.037-0.258-0.097-0.36-0.177c-0.103-0.081-0.185-0.183-0.243-0.309c-0.059-0.125-0.088-0.271-0.088-0.442
		c0-0.235,0.052-0.421,0.157-0.554c0.104-0.133,0.244-0.235,0.417-0.305c0.172-0.07,0.367-0.121,0.583-0.148
		c0.216-0.028,0.436-0.056,0.66-0.082c0.087-0.009,0.163-0.02,0.229-0.032c0.065-0.013,0.12-0.036,0.163-0.068
		c0.045-0.033,0.078-0.079,0.103-0.135c0.023-0.057,0.036-0.131,0.036-0.223c0-0.14-0.024-0.254-0.069-0.345
		c-0.046-0.089-0.109-0.16-0.189-0.213c-0.082-0.052-0.176-0.088-0.282-0.108c-0.107-0.02-0.223-0.029-0.345-0.029
		c-0.262,0-0.477,0.062-0.643,0.186c-0.166,0.125-0.253,0.325-0.262,0.6h-0.413C16.192,4.346,16.234,4.175,16.304,4.032z
		 M18.368,5.042c-0.025,0.048-0.075,0.083-0.149,0.104s-0.14,0.037-0.197,0.045c-0.175,0.031-0.355,0.06-0.542,0.083
		c-0.185,0.023-0.355,0.061-0.507,0.107c-0.153,0.05-0.279,0.118-0.377,0.207c-0.099,0.09-0.148,0.218-0.148,0.384
		c0,0.104,0.021,0.198,0.063,0.278c0.042,0.082,0.097,0.151,0.167,0.21s0.151,0.104,0.243,0.135c0.092,0.03,0.185,0.046,0.283,0.046
		c0.156,0,0.308-0.024,0.452-0.072c0.145-0.049,0.27-0.118,0.378-0.21c0.106-0.092,0.192-0.203,0.256-0.334
		c0.062-0.131,0.095-0.28,0.095-0.445V5.042H18.368z"/>
	<path fill="#231F20" d="M20.072,3.508v0.793h0.012c0.105-0.275,0.269-0.487,0.489-0.635c0.22-0.15,0.482-0.218,0.79-0.205v0.413
		c-0.188-0.009-0.359,0.017-0.512,0.076c-0.153,0.059-0.284,0.143-0.397,0.252c-0.11,0.109-0.197,0.239-0.258,0.39
		c-0.062,0.15-0.091,0.315-0.091,0.494v1.804h-0.414V3.508H20.072z"/>
	<path fill="#231F20" d="M22.255,1.827v3.32l1.876-1.639h0.552l-1.443,1.251l1.541,2.132h-0.519l-1.336-1.842l-0.671,0.557v1.285
		h-0.412V1.827H22.255z"/>
	<path fill="#231F20" d="M25.4,3.501h0.701v0.656h0.013c0.021-0.092,0.065-0.182,0.129-0.269c0.062-0.088,0.139-0.169,0.229-0.241
		c0.089-0.072,0.188-0.131,0.297-0.172c0.111-0.045,0.222-0.067,0.336-0.067c0.087,0,0.148,0.002,0.181,0.006
		c0.031,0.004,0.066,0.009,0.101,0.014v0.72c-0.053-0.007-0.105-0.016-0.161-0.022c-0.054-0.005-0.107-0.01-0.159-0.01
		c-0.128,0-0.247,0.025-0.357,0.075c-0.113,0.052-0.21,0.125-0.291,0.224c-0.084,0.098-0.149,0.22-0.198,0.364
		c-0.048,0.144-0.072,0.311-0.072,0.497v1.614H25.4V3.501z"/>
	<path fill="#231F20" d="M30.723,6.138c0,0.091,0.012,0.155,0.037,0.196c0.024,0.039,0.07,0.059,0.141,0.059
		c0.021,0,0.048,0,0.078,0s0.066-0.004,0.105-0.015v0.52c-0.027,0.008-0.06,0.018-0.103,0.029c-0.04,0.011-0.083,0.021-0.126,0.029
		c-0.046,0.01-0.088,0.017-0.133,0.02c-0.043,0.004-0.081,0.006-0.11,0.006c-0.153,0-0.28-0.029-0.381-0.091
		c-0.1-0.062-0.166-0.168-0.196-0.321c-0.148,0.144-0.331,0.249-0.547,0.314c-0.217,0.065-0.426,0.098-0.628,0.098
		c-0.152,0-0.299-0.02-0.439-0.062c-0.139-0.041-0.263-0.103-0.369-0.183c-0.107-0.082-0.193-0.186-0.257-0.309
		C27.731,6.304,27.7,6.159,27.7,5.992c0-0.209,0.038-0.38,0.115-0.512c0.076-0.131,0.176-0.233,0.301-0.308
		c0.126-0.074,0.265-0.128,0.42-0.161c0.156-0.032,0.312-0.058,0.47-0.075c0.136-0.026,0.264-0.045,0.386-0.056
		s0.231-0.028,0.324-0.056c0.095-0.025,0.169-0.067,0.224-0.121c0.055-0.054,0.082-0.137,0.082-0.246
		c0-0.096-0.022-0.175-0.068-0.236c-0.047-0.061-0.103-0.108-0.17-0.141c-0.069-0.033-0.145-0.055-0.228-0.065
		c-0.082-0.011-0.162-0.017-0.235-0.017c-0.21,0-0.383,0.043-0.519,0.132c-0.137,0.087-0.212,0.223-0.229,0.406h-0.747
		c0.013-0.219,0.065-0.399,0.158-0.544c0.091-0.145,0.208-0.26,0.35-0.348c0.143-0.087,0.302-0.147,0.482-0.184
		c0.179-0.035,0.362-0.052,0.551-0.052c0.166,0,0.331,0.017,0.492,0.052c0.161,0.036,0.306,0.092,0.435,0.171
		c0.13,0.078,0.233,0.18,0.312,0.305c0.079,0.125,0.117,0.277,0.117,0.457V6.138z M29.977,5.191
		c-0.114,0.075-0.254,0.121-0.421,0.136c-0.166,0.015-0.331,0.038-0.497,0.068c-0.079,0.014-0.156,0.031-0.231,0.056
		c-0.073,0.024-0.139,0.058-0.196,0.099c-0.057,0.042-0.101,0.096-0.133,0.164c-0.033,0.067-0.05,0.149-0.05,0.246
		c0,0.083,0.022,0.152,0.072,0.21c0.047,0.057,0.105,0.101,0.174,0.134c0.066,0.032,0.141,0.056,0.223,0.069
		c0.08,0.014,0.153,0.02,0.22,0.02c0.083,0,0.173-0.013,0.269-0.033c0.097-0.021,0.188-0.059,0.273-0.111
		c0.085-0.053,0.154-0.118,0.212-0.2c0.058-0.08,0.086-0.179,0.086-0.298V5.191z"/>
	<path fill="#231F20" d="M31.627,3.501h0.708v0.498l0.014,0.013c0.113-0.188,0.261-0.336,0.444-0.442
		c0.186-0.107,0.388-0.161,0.61-0.161c0.372,0,0.664,0.097,0.879,0.289c0.214,0.193,0.321,0.48,0.321,0.865v2.328h-0.747V4.759
		c-0.009-0.266-0.066-0.459-0.171-0.579c-0.104-0.121-0.268-0.181-0.491-0.181c-0.127,0-0.241,0.023-0.341,0.069
		c-0.101,0.046-0.186,0.11-0.256,0.19c-0.07,0.082-0.124,0.176-0.164,0.285c-0.04,0.11-0.06,0.227-0.06,0.348v2h-0.747V3.501z"/>
	<path fill="#231F20" d="M35.447,1.827h0.747v3.045l1.351-1.371h0.917l-1.298,1.245l1.423,2.145h-0.911L36.64,5.244l-0.445,0.435
		v1.212h-0.747V1.827z"/>
</g>
<g>
	<circle fill="none" stroke="#231F20" stroke-width="0.3529" stroke-miterlimit="10" cx="4.289" cy="4.308" r="3.386"/>
	<path fill="#231F20" d="M4.289,7.695c1.658,0,3.037-1.192,3.329-2.768H6.292C5.142,3.582,5.743,2.361,6.36,1.63
		C6.081,1.414,5.766,1.239,5.425,1.118c-2.841,0.804-3.89,3.81-3.89,3.81H1.189H0.96C1.251,6.503,2.63,7.695,4.289,7.695z"/>
	<path fill="#231F20" d="M7.113,0.927C6.299,0.894,5.59,1.03,4.975,1.27v0.738h1.104C6.512,1.341,7.113,0.927,7.113,0.927z"/>
</g>
</svg>
