<?xml version="1.0" encoding="utf-8"?>
<!-- Generator: Adobe Illustrator 15.0.0, SVG Export Plug-In . SVG Version: 6.00 Build 0)  -->
<!DOCTYPE svg PUBLIC "-//W3C//DTD SVG 1.1//EN" "http://www.w3.org/Graphics/SVG/1.1/DTD/svg11.dtd">
<svg version="1.1" id="Layer_1" xmlns="http://www.w3.org/2000/svg" xmlns:xlink="http://www.w3.org/1999/xlink" x="0px" y="0px"
	 width="54.5px" height="57.75px" viewBox="0 0 54.5 57.75" enable-background="new 0 0 54.5 57.75" xml:space="preserve">
<circle fill="#FFFFFF" cx="27.32" cy="29.039" r="23.57"/>
<text transform="matrix(1 0 0 1 3473.4434 5252.0146)" font-family="'Swiss721BT-BlackCondensed'" font-size="154.7236">Shark</text>
<circle fill="none" stroke="#000000" stroke-width="7" stroke-miterlimit="10" cx="3654.63" cy="5055.825" r="67.177"/>
<path d="M3654.63,5123.002c32.896,0,60.252-23.653,66.033-54.875h-26.284c-22.812-26.709-10.89-50.946,1.345-65.426
	c-5.558-4.305-11.802-7.76-18.55-10.164c-56.378,15.944-77.169,75.59-77.169,75.59h-6.859h-4.549
	C3594.378,5099.349,3621.733,5123.002,3654.63,5123.002z"/>
<path d="M3710.645,4988.747c-16.143-0.659-30.214,2.041-42.416,6.785v14.649h21.914
	C3698.744,4996.967,3710.645,4988.747,3710.645,4988.747z"/>
<path d="M3715.504,5037.138c1.818,5.912,2.803,12.187,2.803,18.688c0,35.111-28.565,63.677-63.677,63.677
	s-63.677-28.565-63.677-63.677c0-6.501,0.984-12.775,2.803-18.688h-7.276c-1.636,5.957-2.526,12.218-2.526,18.688
	c0,38.972,31.705,70.677,70.677,70.677s70.677-31.705,70.677-70.677c0-6.47-0.891-12.73-2.526-18.688H3715.504z"/>
<text transform="matrix(1 0 0 1 3515.3701 5379.0752)" fill="#4D99D3" font-family="'Swiss721BT-BlackCondensed'" font-size="154.7236">Rank</text>
<path d="M51.65,27.677c-0.007-0.107-0.017-0.214-0.024-0.321c-0.033-0.438-0.078-0.874-0.134-1.306
	c-0.01-0.072-0.018-0.144-0.027-0.215c-0.146-1.055-0.36-2.087-0.637-3.095c0-0.001,0-0.003-0.001-0.005l0,0
	c-1.418-5.166-4.484-9.654-8.598-12.865c2.285-2.49,4.381-3.944,4.381-3.944c-3.477-0.142-6.677,0.167-9.618,0.814
	c-3.014-1.324-6.34-2.064-9.837-2.064C14.769,4.676,4.5,13.9,2.845,25.84c-0.009,0.066-0.017,0.133-0.025,0.199
	c-0.057,0.44-0.103,0.884-0.136,1.331c-0.007,0.099-0.016,0.197-0.022,0.297c-0.033,0.516-0.055,1.034-0.055,1.558
	c0,13.537,11.013,24.55,24.55,24.55c13.536,0,24.548-11.013,24.548-24.55C51.704,28.704,51.683,28.189,51.65,27.677z M48.3,22.735
	L48.3,22.735c0.144,0.47,0.269,0.948,0.382,1.43c0.02,0.083,0.039,0.165,0.057,0.248c0.216,0.966,0.367,1.957,0.451,2.965
	c0.009,0.11,0.018,0.221,0.025,0.332c0.034,0.501,0.057,1.005,0.057,1.515c0,1.462-0.146,2.89-0.418,4.273h-7.893
	c-6.685-7.826-4.783-15.041-1.473-20.126h0.001c0.178-0.273,0.36-0.539,0.544-0.799c0.019-0.027,0.039-0.055,0.058-0.082
	c0.187-0.261,0.376-0.517,0.567-0.765C44.232,14.491,46.941,18.318,48.3,22.735z M27.156,7.108c2.011,0,3.958,0.275,5.811,0.78
	c-0.105,0.037-0.208,0.079-0.312,0.117c-0.258,0.093-0.522,0.181-0.775,0.279v0.01C14.64,15,8.183,33.498,8.183,33.498H5.8H5.457
	c-0.272-1.384-0.418-2.812-0.418-4.273c0-0.51,0.023-1.014,0.057-1.515c0.008-0.111,0.016-0.221,0.025-0.332
	c0.084-1.009,0.235-1.999,0.451-2.965c0.018-0.083,0.038-0.165,0.057-0.248c0.113-0.482,0.238-0.96,0.383-1.43h0
	C8.791,13.697,17.218,7.108,27.156,7.108z"/>
</svg>
